<?xml version="1.0" encoding="UTF-8" standalone="no"?>
<!-- Created with Inkscape (http://www.inkscape.org/) -->

<svg
   xmlns:dc="http://purl.org/dc/elements/1.1/"
   xmlns:cc="http://creativecommons.org/ns#"
   xmlns:rdf="http://www.w3.org/1999/02/22-rdf-syntax-ns#"
   xmlns:svg="http://www.w3.org/2000/svg"
   xmlns="http://www.w3.org/2000/svg"
   xmlns:sodipodi="http://sodipodi.sourceforge.net/DTD/sodipodi-0.dtd"
   xmlns:inkscape="http://www.inkscape.org/namespaces/inkscape"
   sodipodi:docname="linear.svg"
   inkscape:version="0.48.5 r10040"
   version="1.1"
   id="svg2"
   height="277.08795"
   width="279.55652"
   inkscape:export-filename="/home/francescomannella/Dropbox/Projects/neunet-basics/course/linear.png"
   inkscape:export-xdpi="80.55204"
   inkscape:export-ydpi="80.55204">
  <sodipodi:namedview
     id="base"
     pagecolor="#ffffff"
     bordercolor="#666666"
     borderopacity="1.0"
     inkscape:pageopacity="0.0"
     inkscape:pageshadow="2"
     inkscape:zoom="1.6898938"
     inkscape:cx="115.4662"
     inkscape:cy="203.09303"
     inkscape:document-units="px"
     inkscape:current-layer="layer1"
     showgrid="false"
     inkscape:window-width="1920"
     inkscape:window-height="1149"
     inkscape:window-x="0"
     inkscape:window-y="26"
     inkscape:window-maximized="1"
     fit-margin-top="0"
     fit-margin-left="0"
     fit-margin-right="0"
     fit-margin-bottom="0" />
  <defs
     id="defs4">
    <marker
       inkscape:stockid="Arrow2Mend"
       orient="auto"
       refY="0"
       refX="0"
       id="Arrow2Mend"
       style="overflow:visible">
      <path
         id="path5075"
         style="fill-rule:evenodd;stroke-width:0.625;stroke-linejoin:round"
         d="M 8.7185878,4.0337352 -2.2072895,0.01601326 8.7185884,-4.0017078 c -1.7454984,2.3720609 -1.7354408,5.6174519 -6e-7,8.035443 z"
         transform="scale(-0.6,-0.6)"
         inkscape:connector-curvature="0" />
    </marker>
  </defs>
  <metadata
     id="metadata7">
    <rdf:RDF>
      <cc:Work
         rdf:about="">
        <dc:format>image/svg+xml</dc:format>
        <dc:type
           rdf:resource="http://purl.org/dc/dcmitype/StillImage" />
        <dc:title></dc:title>
      </cc:Work>
    </rdf:RDF>
  </metadata>
  <g
     id="layer1"
     inkscape:groupmode="layer"
     inkscape:label="Layer 1"
     transform="translate(-240.63099,-397.87899)">
    <path
       id="rect3784"
       d="m 240.63099,397.87899 0,268.71875 2,0 275.5625,-209.5 0,-59.21875 -277.5625,0 z"
       style="color:#000000;fill:#dcf8f2;fill-opacity:1;stroke:none;stroke-width:2;marker:none;visibility:visible;display:inline;overflow:visible;enable-background:accumulate"
       inkscape:connector-curvature="0"
       inkscape:export-filename="/home/francescomannella/Dropbox/Projects/neunet-basics/course/linear.png"
       inkscape:export-xdpi="64.387695"
       inkscape:export-ydpi="64.387695" />
    <path
       sodipodi:nodetypes="cc"
       inkscape:connector-curvature="0"
       id="rect3792"
       d="M 519.0107,458.20522 C 381.48866,563.01519 379.82375,563.54325 242.52737,668.64906"
       style="color:#000000;fill:#dcf8f2;fill-opacity:1;stroke:#000000;stroke-width:2;stroke-linecap:butt;stroke-linejoin:miter;stroke-miterlimit:4;stroke-opacity:1;stroke-dasharray:none;stroke-dashoffset:0;marker:none;visibility:visible;display:inline;overflow:visible;enable-background:accumulate"
       inkscape:export-filename="/home/francescomannella/Dropbox/Projects/neunet-basics/course/linear.png"
       inkscape:export-xdpi="64.387695"
       inkscape:export-ydpi="64.387695" />
    <path
       sodipodi:nodetypes="cc"
       inkscape:connector-curvature="0"
       id="path2985"
       d="m 278.93057,399.70659 0,270.54168"
       style="fill:none;stroke:#000000;stroke-width:1px;stroke-linecap:butt;stroke-linejoin:miter;stroke-opacity:1"
       inkscape:export-filename="/home/francescomannella/Dropbox/Projects/neunet-basics/course/linear.png"
       inkscape:export-xdpi="64.387695"
       inkscape:export-ydpi="64.387695" />
    <path
       style="fill:none;stroke:#000000;stroke-width:1px;stroke-linecap:butt;stroke-linejoin:miter;stroke-opacity:1"
       d="m 249.65973,626.97743 270.54168,0"
       id="path2987"
       inkscape:connector-curvature="0"
       sodipodi:nodetypes="cc"
       inkscape:export-filename="/home/francescomannella/Dropbox/Projects/neunet-basics/course/linear.png"
       inkscape:export-xdpi="64.387695"
       inkscape:export-ydpi="64.387695" />
    <g
       transform="matrix(0.57274332,0,0,0.57274332,326.7739,438.36567)"
       id="g4232"
       inkscape:export-filename="/home/francescomannella/Dropbox/Projects/neunet-basics/course/linear.png"
       inkscape:export-xdpi="64.387695"
       inkscape:export-ydpi="64.387695">
      <path
         id="path4171"
         d="m 314.63503,347.10946 -0.0531,0.0106 -0.0638,0.0213 -0.0425,0.0213 -0.0531,0.0213 -0.0532,0.0213 -0.0425,0.0213 -0.0531,0.0213 -0.0425,0.0319 -0.0425,0.0213 -0.0425,0.0319 -0.0319,0.0213 -0.0425,0.0319 -0.0425,0.0213 -0.0319,0.0319 -0.0319,0.0319 -0.0319,0.0319 -0.0638,0.0638 -0.0531,0.0532 -0.0532,0.0744 -0.0425,0.0638 -0.0425,0.0638 -0.0425,0.0638 -0.0319,0.0638 -0.0319,0.0638 -0.0213,0.0638 -0.0319,0.0638 -0.0213,0.0638 -0.0106,0.0532 -0.0213,0.0638 -0.0106,0.0531 -0.0106,0.0425 0,0.0532 -0.0106,0.0425 0,0.0319 -0.0106,0.0319 0,0.0319 0,0.0213 0,0.0106 0,0.0106 0,0 0,0.0106 0,0 0,0 c 0,0.45709 0.30827,1.08426 1.17992,1.08426 0.74409,0 1.63701,-0.62717 1.63701,-1.79646 0,-1.5626 -1.74331,-2.1685 -3.13583,-2.1685 -1.72205,0 -2.83819,1.10551 -3.36968,1.80708 -0.88229,-1.50945 -2.57245,-1.80708 -3.51851,-1.80708 -3.3059,0 -5.1874,3.11456 -5.1874,4.09252 0,0.38267 0.41457,0.38267 0.55276,0.38267 0.23385,0 0.44645,-0.0319 0.56338,-0.30827 0.77599,-2.61496 2.95512,-3.26338 3.96496,-3.26338 0.87166,0 1.8815,0.37205 1.8815,1.76457 0,0.66968 -0.47835,2.4874 -1.38189,6.01653 -0.39331,1.50945 -1.60512,2.40236 -2.75315,2.40236 -0.18071,0 -0.94606,0 -1.58386,-0.41456 1.17992,-0.4252 1.17992,-1.42441 1.17992,-1.54134 0,-0.76536 -0.57401,-1.11614 -1.15866,-1.11614 -0.66968,0 -1.64764,0.53149 -1.64764,1.81771 0,1.60512 1.81772,2.16851 3.15709,2.16851 1.46693,0 2.64685,-0.83977 3.28465,-1.80709 1.05236,1.59449 2.74251,1.80709 3.57165,1.80709 3.33779,0 5.21929,-3.15709 5.21929,-4.11378 0,-0.37205 -0.44646,-0.37205 -0.55276,-0.37205 -0.45708,0 -0.51023,0.17008 -0.59527,0.40394 -0.76536,2.39173 -2.8063,3.16771 -3.96496,3.16771 -0.79725,0 -1.8815,-0.27637 -1.8815,-1.75393 0,-0.34016 0,-0.52087 0.22323,-1.41378 0.44646,-1.86024 1.15866,-4.80473 1.37126,-5.26181 0.32953,-0.70158 1.21181,-1.75394 2.56181,-1.75394 0.085,0 0.97795,0 1.59449,0.4252 z"
         style="font-style:normal;font-variant:normal;font-weight:normal;font-stretch:normal;letter-spacing:normal;word-spacing:normal;text-anchor:start;fill:#000000;stroke:#000000;stroke-width:0.87299144;stroke-linecap:butt;stroke-linejoin:miter;stroke-miterlimit:10.43299961;stroke-opacity:1;stroke-dasharray:none;stroke-dashoffset:0"
         inkscape:connector-curvature="0" />
      <path
         id="path4173"
         d="m 335.02322,356.92087 0,-0.19134 0,-0.22322 -0.0106,-0.25512 0,-0.27638 -0.0213,-0.29764 -0.0106,-0.30827 -0.0319,-0.34015 -0.0319,-0.35079 -0.0532,-0.36142 -0.0532,-0.37204 -0.0744,-0.37205 -0.0744,-0.39331 -0.1063,-0.39331 -0.11693,-0.38267 -0.12756,-0.39331 -0.14882,-0.39331 -0.1807,-0.38267 -0.19134,-0.37205 -0.2126,-0.36142 -0.24449,-0.35079 -0.26575,-0.34015 -0.28701,-0.3189 -0.15944,-0.14882 -0.17008,-0.14882 -0.17008,-0.13819 -0.17008,-0.13819 -0.19134,-0.12756 -0.19134,-0.12756 -0.20197,-0.11692 -0.21259,-0.1063 -0.2126,-0.1063 -0.23386,-0.0957 -0.23386,-0.085 -0.24449,-0.085 -0.24449,-0.0744 -0.26574,-0.0532 -0.26575,-0.0638 -0.28701,-0.0425 -0.28701,-0.0319 -0.29764,-0.0319 -0.30826,-0.0106 -0.3189,-0.0106 v 0.88228 c 1.9559,0 3.36968,0.99922 3.87992,2.85945 0.38268,1.35 0.38268,3.5504 0.38268,5.113 0,1.79645 0,3.9437 -0.39331,5.53818 -0.70157,2.57245 -2.8063,2.95512 -3.86929,2.95512 h 0 c -0.97795,0 -3.21024,-0.34016 -3.86929,-3.00827 -0.37205,-1.4244 -0.40394,-3.32716 -0.40394,-5.48503 0,-1.95591 0,-3.78426 0.43583,-5.29371 0.65905,-2.23228 2.71063,-2.67874 3.8374,-2.67874 v -0.88228 c -6.90945,0 -6.90945,7.26024 -6.90945,9.17362 0,1.92402 0,9.0567 6.90945,9.0567 6.90945,0 6.90945,-7.13268 6.90945,-9.0567 z"
         style="font-style:normal;font-variant:normal;font-weight:normal;font-stretch:normal;letter-spacing:normal;word-spacing:normal;text-anchor:start;fill:#000000;stroke:#000000;stroke-width:0.87299144;stroke-linecap:butt;stroke-linejoin:miter;stroke-miterlimit:10.43299961;stroke-opacity:1;stroke-dasharray:none;stroke-dashoffset:0"
         inkscape:connector-curvature="0" />
    </g>
    <g
       transform="matrix(0.55863713,0,0,0.55863713,59.091305,211.80854)"
       id="g4236"
       inkscape:export-filename="/home/francescomannella/Dropbox/Projects/neunet-basics/course/linear.png"
       inkscape:export-xdpi="64.387695"
       inkscape:export-ydpi="64.387695">
      <path
         id="path4175"
         d="m 356.34684,347.10946 -0.0531,0.0106 -0.0532,0.0213 -0.0532,0.0213 -0.0532,0.0213 -0.0531,0.0213 -0.0425,0.0213 -0.0425,0.0213 -0.0532,0.0319 -0.0425,0.0213 -0.0425,0.0319 -0.0319,0.0213 -0.0425,0.0319 -0.0319,0.0213 -0.0425,0.0319 -0.0319,0.0319 -0.0319,0.0319 -0.0638,0.0638 -0.0531,0.0532 -0.0532,0.0744 -0.0425,0.0638 -0.0425,0.0638 -0.0425,0.0638 -0.0319,0.0638 -0.0319,0.0638 -0.0213,0.0638 -0.0213,0.0638 -0.0213,0.0638 -0.0213,0.0532 -0.0106,0.0638 -0.0213,0.0531 0,0.0425 -0.0106,0.0532 -0.0106,0.0425 0,0.0319 -0.0106,0.0319 0,0.0319 0,0.0213 0,0.0106 0,0.0106 0,0 0,0.0106 0,0 0,0 c 0,0.45709 0.3189,1.08426 1.17992,1.08426 0.74409,0 1.64764,-0.62717 1.64764,-1.79646 0,-1.5626 -1.74331,-2.1685 -3.14646,-2.1685 -1.72205,0 -2.83819,1.10551 -3.36968,1.80708 -0.88229,-1.50945 -2.57245,-1.80708 -3.51851,-1.80708 -3.3059,0 -5.1874,3.11456 -5.1874,4.09252 0,0.38267 0.41457,0.38267 0.55276,0.38267 0.23385,0 0.44645,-0.0319 0.56338,-0.30827 0.77599,-2.61496 2.95512,-3.26338 3.96496,-3.26338 0.87166,0 1.8815,0.37205 1.8815,1.76457 0,0.66968 -0.47835,2.4874 -1.38189,6.01653 -0.39331,1.50945 -1.60512,2.40236 -2.75315,2.40236 -0.18071,0 -0.94606,0 -1.57323,-0.41456 1.16929,-0.4252 1.16929,-1.42441 1.16929,-1.54134 0,-0.76536 -0.57401,-1.11614 -1.15866,-1.11614 -0.65905,0 -1.64764,0.53149 -1.64764,1.81771 0,1.60512 1.81772,2.16851 3.15709,2.16851 1.46693,0 2.64685,-0.83977 3.29528,-1.80709 1.04173,1.59449 2.73188,1.80709 3.57165,1.80709 3.33779,0 5.20866,-3.15709 5.20866,-4.11378 0,-0.37205 -0.44646,-0.37205 -0.54213,-0.37205 -0.46771,0 -0.52086,0.17008 -0.6059,0.40394 -0.75473,2.39173 -2.8063,3.16771 -3.96496,3.16771 -0.79725,0 -1.8815,-0.27637 -1.8815,-1.75393 0,-0.34016 0,-0.52087 0.22323,-1.41378 0.44646,-1.86024 1.15866,-4.80473 1.37126,-5.26181 0.34016,-0.70158 1.21181,-1.75394 2.56181,-1.75394 0.085,0 0.97795,0 1.59449,0.4252 z"
         style="font-style:normal;font-variant:normal;font-weight:normal;font-stretch:normal;letter-spacing:normal;word-spacing:normal;text-anchor:start;fill:#000000;stroke:#000000;stroke-width:0.89503539;stroke-linecap:butt;stroke-linejoin:miter;stroke-miterlimit:10.43299961;stroke-opacity:1;stroke-dasharray:none;stroke-dashoffset:0"
         inkscape:connector-curvature="0" />
      <path
         id="path4177"
         d="m 371.36692,348.5445 0,-0.0319 0,-0.0319 0,-0.0425 0,-0.0319 0,-0.0319 0,-0.0319 0,-0.0319 0,-0.0213 0,-0.0319 -0.0106,-0.0213 0,-0.0319 0,-0.0213 0,-0.0319 -0.0106,-0.0213 0,-0.0213 0,-0.0213 -0.0106,-0.0213 0,-0.0213 -0.0106,-0.0319 -0.0106,-0.0319 -0.0213,-0.0319 -0.0106,-0.0319 -0.0213,-0.0213 -0.0213,-0.0213 -0.0213,-0.0213 -0.0213,-0.0213 -0.0319,-0.0106 -0.0319,-0.0106 -0.0319,-0.0213 -0.0425,0 -0.0425,-0.0106 -0.0425,-0.0106 -0.0213,0 -0.0213,0 -0.0319,-0.0106 -0.0213,0 -0.0319,0 -0.0213,0 -0.0319,0 -0.0319,0 -0.0319,0 -0.0319,0 -0.0319,0 -0.0319,0 -0.0319,0 -0.0425,0 -0.0319,0 -0.0425,0 -0.0319,-0.0106 -0.0425,0 c -1.88149,1.70079 -4.81535,1.70079 -5.34685,1.70079 h -0.45708 v 1.15866 h 0.45708 c 0.60591,0 2.31733,-0.0638 3.8693,-0.73346 v 13.24488 c 0,0.80787 0,1.10551 -2.8063,1.10551 h -1.32874 v 1.16929 c 1.4563,-0.1063 3.81614,-0.1063 5.34685,-0.1063 1.54134,0 3.90118,0 5.34685,0.1063 v -1.16929 h -1.31811 c -2.8063,0 -2.8063,-0.29764 -2.8063,-1.10551 z"
         style="font-style:normal;font-variant:normal;font-weight:normal;font-stretch:normal;letter-spacing:normal;word-spacing:normal;text-anchor:start;fill:#000000;stroke:#000000;stroke-width:0.89503539;stroke-linecap:butt;stroke-linejoin:miter;stroke-miterlimit:10.43299961;stroke-opacity:1;stroke-dasharray:none;stroke-dashoffset:0"
         inkscape:connector-curvature="0" />
    </g>
    <g
       id="g5501"
       transform="matrix(0.79404961,0,0,0.79404961,86.598314,102.54624)"
       inkscape:export-filename="/home/francescomannella/Dropbox/Projects/neunet-basics/course/linear.png"
       inkscape:export-xdpi="64.387695"
       inkscape:export-ydpi="64.387695">
      <path
         d="m 439.57103,536.64166 -0.0495,0.0124 -0.0433,0.0124 -0.0494,0.0185 -0.0433,0.0186 -0.0433,0.0186 -0.0371,0.0186 -0.0371,0.0247 -0.0371,0.0247 -0.0371,0.0247 -0.0309,0.0247 -0.031,0.031 -0.031,0.0247 -0.0309,0.0309 -0.0247,0.0309 -0.0247,0.0309 -0.0247,0.031 -0.0186,0.0309 -0.0186,0.0309 -0.0186,0.0309 -0.0186,0.0309 -0.0124,0.0371 -0.0186,0.0309 -0.0124,0.0309 -0.006,0.031 -0.0124,0.0309 -0.006,0.0309 -0.006,0.0309 -0.006,0.031 -0.006,0.0309 -0.006,0.0309 0,0.0247 0,0.0247 c 0,0.29064 0.22263,0.59984 0.64932,0.59984 0.36485,0 0.90904,-0.24736 0.90904,-1.03891 0,-1.23679 -1.40376,-1.62638 -2.60344,-1.62638 -2.81989,0 -3.50631,1.86756 -3.50631,2.65911 0,1.48414 1.70059,1.78716 2.17675,1.85519 1.37903,0.24117 2.45504,0.44524 2.45504,1.34191 0,0.38341 -0.3092,1.05127 -0.97707,1.42231 -0.72352,0.38341 -1.51507,0.42051 -2.04689,0.42051 -0.64932,0 -1.78717,-0.068 -2.31899,-0.67405 0.64314,-0.1175 0.95234,-0.60603 0.95234,-1.05127 0,-0.38959 -0.25973,-0.70497 -0.75445,-0.70497 -0.48235,0 -1.06982,0.3834 -1.06982,1.25534 0,1.01417 1.01417,1.78717 3.16618,1.78717 3.45066,0 4.18655,-2.13966 4.18655,-2.98686 0,-0.60603 -0.25355,-1.03272 -0.67405,-1.40376 -0.59367,-0.50708 -1.28009,-0.62458 -2.16439,-0.77299 -0.90286,-0.16079 -1.78717,-0.3092 -1.78717,-1.03272 0,-0.0186 0,-1.50889 2.34373,-1.50889 0.45761,0 1.3852,0.068 1.80571,0.59366 z"
         id="path4552"
         inkscape:connector-curvature="0"
         style="font-style:normal;font-variant:normal;font-weight:normal;font-stretch:normal;letter-spacing:normal;word-spacing:normal;text-anchor:start;fill:#000000;stroke:#000000;stroke-width:0.62968367;stroke-linecap:butt;stroke-linejoin:miter;stroke-miterlimit:10.43299961;stroke-opacity:1;stroke-dasharray:none;stroke-dashoffset:0" />
      <path
         d="m 447.51123,531.33583 0,-0.006 0,-0.006 0.006,-0.0124 0,-0.006 0.006,-0.0186 0,-0.0124 0.006,-0.0186 0.006,-0.0186 0.006,-0.0186 0.006,-0.0186 0,-0.0186 0.006,-0.0186 0,-0.0186 0.006,-0.0186 0,-0.0186 0.006,-0.006 0,-0.0124 0,-0.006 0,-0.0124 0,-0.006 0,-0.006 c 0,-0.30302 -0.36485,-0.28447 -0.58747,-0.26592 l -2.07163,0.16697 c -0.3092,0.0186 -0.55037,0.0371 -0.55037,0.48235 0,0.27828 0.24117,0.27828 0.53182,0.27828 0.54419,0 0.66787,0.0494 0.90904,0.12986 0,0.22263 0,0.25973 -0.0742,0.55037 l -2.25096,8.95438 c -0.0495,0.20407 -0.0928,0.37104 -0.0928,0.63076 0,1.1193 1.03891,1.76862 2.07163,1.76862 0.77299,0 1.20587,-0.49472 1.4656,-0.92141 0.50708,-0.79155 0.73589,-1.84282 0.73589,-1.92322 0,-0.0247 -0.006,-0.24735 -0.34631,-0.24735 -0.27209,0 -0.30919,0.12367 -0.38958,0.42669 -0.32776,1.29863 -0.75445,2.05307 -1.39758,2.05307 -0.68023,0 -0.68023,-0.7297 -0.68023,-0.91522 0,-0.30302 0.031,-0.44525 0.0866,-0.64932 z"
         id="path4554"
         inkscape:connector-curvature="0"
         style="font-style:normal;font-variant:normal;font-weight:normal;font-stretch:normal;letter-spacing:normal;word-spacing:normal;text-anchor:start;fill:#000000;stroke:#000000;stroke-width:0.62968367;stroke-linecap:butt;stroke-linejoin:miter;stroke-miterlimit:10.43299961;stroke-opacity:1;stroke-dasharray:none;stroke-dashoffset:0" />
      <path
         d="m 459.86678,538.71947 -0.006,-0.17315 -0.0124,-0.17315 -0.0186,-0.16697 -0.0309,-0.16078 -0.0371,-0.16078 -0.0433,-0.16079 -0.0495,-0.14841 -0.0618,-0.1546 -0.0618,-0.14223 -0.0742,-0.14223 -0.0804,-0.13605 -0.0866,-0.13605 -0.0989,-0.12367 -0.0989,-0.12368 -0.10513,-0.1175 -0.11749,-0.1175 -0.1175,-0.10512 -0.12986,-0.0989 -0.12987,-0.0989 -0.13604,-0.0928 -0.14841,-0.0804 -0.14842,-0.0804 -0.1546,-0.068 -0.16079,-0.0618 -0.16696,-0.0618 -0.17315,-0.0494 -0.17315,-0.0433 -0.18552,-0.0371 -0.18552,-0.0247 -0.18552,-0.0186 -0.19788,-0.0124 -0.19789,-0.006 -0.0247,0.60603 c 0.95233,0 1.99124,0.53182 1.99124,2.05926 0,0.46379 -0.17934,2.3128 -1.20587,3.63616 -0.56274,0.7359 -1.60165,1.39758 -2.65911,1.39758 h 0 c -1.06982,0 -1.99123,-0.64313 -1.99123,-2.05307 0,-0.63077 0.27209,-2.31281 1.05746,-3.41355 0.77299,-1.13166 1.91084,-1.62638 2.80751,-1.62638 l 0.0247,-0.60603 c -2.78278,0 -5.49136,2.45503 -5.49136,5.03375 0,1.97268 1.54599,3.2775 3.55577,3.2775 2.88173,0 5.50991,-2.50451 5.50991,-5.03375 z"
         id="path4556"
         inkscape:connector-curvature="0"
         style="font-style:normal;font-variant:normal;font-weight:normal;font-stretch:normal;letter-spacing:normal;word-spacing:normal;text-anchor:start;fill:#000000;stroke:#000000;stroke-width:0.62968367;stroke-linecap:butt;stroke-linejoin:miter;stroke-miterlimit:10.43299961;stroke-opacity:1;stroke-dasharray:none;stroke-dashoffset:0" />
      <path
         d="m 462.54444,545.80011 -0.0124,0.0433 -0.0124,0.0433 -0.0124,0.0371 -0.0124,0.0371 -0.006,0.0371 -0.0124,0.0371 -0.0124,0.031 -0.0124,0.0309 -0.0124,0.0247 -0.0124,0.0309 -0.0124,0.0247 -0.0186,0.0247 -0.0124,0.0186 -0.0186,0.0247 -0.0186,0.0186 -0.0247,0.0186 -0.0247,0.0186 -0.0247,0.0124 -0.0247,0.0124 -0.031,0.0186 -0.031,0.006 -0.0371,0.0124 -0.0371,0.0124 -0.0247,0 -0.0186,0.006 -0.0247,0 -0.0185,0.006 -0.0247,0.006 -0.0247,0 -0.0247,0 -0.0309,0.006 -0.0247,0 -0.031,0 -0.0247,0.006 -0.0309,0 -0.0309,0 -0.0309,0 -0.0371,0 -0.031,0 -0.0371,0 -0.0371,0 c -0.24117,0 -0.35867,0 -0.42669,0.11131 -0.0371,0.0742 -0.1175,0.31539 -0.1175,0.36486 0.0247,0.0557 0.0433,0.25972 0.30302,0.25972 0.51327,0 1.11929,-0.0742 1.66348,-0.0742 0.32775,0 0.67406,0.0186 1.0018,0.0186 0.32157,0 0.68642,0.0557 0.99562,0.0557 0.1175,0 0.24118,0 0.32156,-0.12368 0.0371,-0.0557 0.10513,-0.27828 0.10513,-0.35867 -0.0494,-0.25354 -0.23498,-0.25354 -0.55037,-0.25354 -0.44524,0 -0.92141,0 -0.92141,-0.21644 0,-0.0989 0.12986,-0.57511 0.20407,-0.85339 l 0.6555,-2.68384 c 0.44525,0.6555 1.13167,1.10075 2.02834,1.10075 v -0.61222 c -1.37902,0 -1.74387,-1.43467 -1.74387,-1.58309 0,-0.0866 0.0371,-0.20407 0.0557,-0.27828 l 0.82865,-3.25894 c 0.0866,-0.31539 0.0866,-0.34631 0.42051,-0.71116 0.58747,-0.66787 1.47796,-1.26152 2.34372,-1.26152 0.87812,0 1.45323,0.68023 1.45323,1.81189 0,0.62458 -0.37104,2.66529 -1.08219,3.79695 -0.63077,0.95233 -1.5027,1.48415 -2.2757,1.48415 v 0.61222 c 2.43648,0 4.92243,-2.54161 4.92243,-5.18216 0,-1.91084 -1.34192,-3.12909 -2.9683,-3.12909 -1.49033,0 -2.64674,1.19969 -2.74568,1.30482 -0.32775,-1.08219 -1.4656,-1.30482 -2.00979,-1.30482 -0.84102,0 -1.28007,0.60604 -1.52125,1.01417 -0.44524,0.773 -0.66787,1.73151 -0.66787,1.80572 0,0.20407 0.17315,0.27209 0.33393,0.27209 0.29065,0 0.3092,-0.12368 0.40815,-0.42669 0.38958,-1.52744 0.82246,-2.05925 1.40376,-2.05925 0.65549,0 0.65549,0.75444 0.65549,0.93995 0,0.32157 -0.0186,0.36486 -0.0494,0.53183 z"
         id="path4558"
         inkscape:connector-curvature="0"
         style="font-style:normal;font-variant:normal;font-weight:normal;font-stretch:normal;letter-spacing:normal;word-spacing:normal;text-anchor:start;fill:#000000;stroke:#000000;stroke-width:0.62968367;stroke-linecap:butt;stroke-linejoin:miter;stroke-miterlimit:10.43299961;stroke-opacity:1;stroke-dasharray:none;stroke-dashoffset:0" />
      <path
         d="m 476.70571,539.42444 0.22881,0 0.2288,-0.006 0.235,-0.006 0.24117,-0.006 0.23499,-0.0124 0.23499,-0.0186 0.24118,-0.0186 0.2288,-0.0186 0.23499,-0.0247 0.22881,-0.0309 0.22262,-0.0371 0.21644,-0.0371 0.21025,-0.0371 0.20408,-0.0494 0.19788,-0.0495 0.0928,-0.0247 0.0928,-0.0309 c 1.59546,-0.53182 1.66967,-1.66348 1.66967,-1.92939 0,-0.90905 -0.87812,-1.64494 -2.45503,-1.64494 v 0.60603 c 0.87194,0 1.60783,0.38959 1.60783,1.05746 0,1.70677 -3.07343,1.70677 -5.04611,1.70677 h 0 c 0.60602,-2.17057 2.41793,-2.76423 3.43828,-2.76423 v -0.60603 c -2.25715,0 -5.39242,1.62638 -5.39242,4.77402 0,1.95413 1.26772,3.53723 3.58052,3.53723 3.41973,0 4.76783,-1.83046 4.76783,-2.0469 0,-0.16696 -0.19788,-0.37103 -0.35248,-0.37103 -0.0866,0 -0.11132,0.0186 -0.38959,0.30301 -1.10075,1.24298 -2.98686,1.5027 -4.00102,1.5027 -1.48415,0 -2.01598,-1.06364 -2.01598,-2.25096 0,-0.14223 0.0186,-0.75444 0.20407,-1.4656 z"
         id="path4560"
         inkscape:connector-curvature="0"
         style="font-style:normal;font-variant:normal;font-weight:normal;font-stretch:normal;letter-spacing:normal;word-spacing:normal;text-anchor:start;fill:#000000;stroke:#000000;stroke-width:0.62968367;stroke-linecap:butt;stroke-linejoin:miter;stroke-miterlimit:10.43299961;stroke-opacity:1;stroke-dasharray:none;stroke-dashoffset:0" />
    </g>
    <path
       style="font-style:normal;font-variant:normal;font-weight:normal;font-stretch:normal;letter-spacing:normal;word-spacing:normal;text-anchor:start;fill:#000000;stroke:#000000;stroke-width:0.50000006;stroke-linecap:butt;stroke-linejoin:miter;stroke-miterlimit:10.43299961;stroke-opacity:1;stroke-dasharray:none;stroke-dashoffset:0"
       inkscape:connector-curvature="0"
       id="path4564"
       d="m 486.89558,530.89074 0.0118,0 0.0148,0 0.0148,0 0.0148,0 0.0296,-0.005 0.0148,0 0.0148,0 0.0148,-0.005 0.0148,0 0.0178,-0.005 0.0148,-0.005 0.0148,-0.005 0.0118,-0.01 0.0148,-0.005 0.0148,-0.01 0.0118,-0.01 0.0148,-0.01 0.0118,-0.01 0.0118,-0.0148 0.0118,-0.0148 0.009,-0.0148 0.009,-0.0196 0.006,-0.01 0.003,-0.01 0.006,-0.01 0.003,-0.01 0.003,-0.0148 0.003,-0.01 0.006,-0.01 0.003,-0.0148 0.003,-0.0148 0,-0.01 0.003,-0.0148 0.003,-0.0148 0,-0.0148 0.003,-0.0148 0,-0.0196 0,-0.0148 0.003,-0.0196 0,-0.0148 c 0,-0.3781 -0.21892,-0.3781 -0.36092,-0.3781 h -5.55275 c -0.142,0 -0.36387,0 -0.36387,0.3781 0,0.38301 0.22187,0.38301 0.36387,0.38301 z"
       inkscape:export-filename="/home/francescomannella/Dropbox/Projects/neunet-basics/course/linear.png"
       inkscape:export-xdpi="64.387695"
       inkscape:export-ydpi="64.387695" />
    <path
       style="font-style:normal;font-variant:normal;font-weight:normal;font-stretch:normal;letter-spacing:normal;word-spacing:normal;text-anchor:start;fill:#000000;stroke:#000000;stroke-width:0.50000006;stroke-linecap:butt;stroke-linejoin:miter;stroke-miterlimit:10.43299961;stroke-opacity:1;stroke-dasharray:none;stroke-dashoffset:0"
       inkscape:connector-curvature="0"
       id="path4566"
       d="m 498.42717,523.05722 0.0148,0.0295 0.0196,0.0295 0.0245,0.0344 0.0196,0.0344 0.0295,0.0344 0.0295,0.0344 0.0294,0.0344 0.0344,0.0392 0.0344,0.0344 0.0392,0.0392 0.0392,0.0344 0.0442,0.0393 0.0491,0.0344 0.0491,0.0344 0.054,0.0344 0.0589,0.0344 0.0589,0.0344 0.0589,0.0344 0.0688,0.0294 0.0688,0.0295 0.0737,0.0295 0.0785,0.0295 0.0785,0.0245 0.0835,0.0196 0.0884,0.0196 0.0933,0.0196 0.0933,0.0148 0.0982,0.0148 0.10312,0.01 0.10803,0.01 0.11293,0.005 0.11786,0 c 2.3226,0 2.95604,-3.91847 2.95604,-4.50281 0,-0.84458 -0.49103,-1.05082 -0.70219,-1.05082 -0.383,0 -0.72182,0.39283 -0.72182,0.7071 0,0.23079 0.15713,0.35355 0.23079,0.41246 0.34863,0.26026 0.4763,0.57452 0.4763,0.93789 0,0.31426 -0.61379,3.07389 -2.1802,3.07389 -0.45666,0 -1.17358,-0.1424 -1.17358,-1.10974 0,-0.0246 0,-0.25534 0.0884,-0.62361 0.11294,-0.49105 0.46649,-1.89541 0.63344,-2.54849 0.054,-0.19151 0.054,-0.21115 0.054,-0.27499 0,-0.26515 -0.22096,-0.4272 -0.45175,-0.4272 -0.20133,0 -0.42229,0.10803 -0.53523,0.31427 -0.054,0.0835 -0.16204,0.53522 -0.24061,0.81021 -0.16695,0.69237 -0.16695,0.72182 -0.35354,1.40437 -0.0982,0.39283 -0.20624,0.8544 -0.22097,1.19321 0.0392,0.19151 0,0.25043 -0.10803,0.45667 -0.46648,0.8053 -0.98208,0.8053 -1.17358,0.8053 -0.18168,0 -0.65308,-0.0196 -0.96734,-0.28971 -0.31427,-0.2848 -0.31427,-0.73656 -0.31427,-0.86913 0,-0.49596 0.15222,-1.00172 0.66781,-2.24405 0.0982,-0.24551 0.17677,-0.43211 0.17677,-0.63834 0,-0.59907 -0.57451,-1.08029 -1.33561,-1.08029 -1.28652,0 -1.96906,1.5615 -1.96906,1.89541 0,0.17186 0.19641,0.17186 0.26025,0.17186 0.20624,0 0.21606,-0.0589 0.27498,-0.24552 0.26025,-0.83967 0.83476,-1.39945 1.37981,-1.39945 0.24061,0 0.36828,0.12766 0.36828,0.45666 0,0.24552 -0.0442,0.38301 -0.20624,0.73655 -0.64326,1.59097 -0.64326,1.90523 -0.64326,2.20476 0,1.40437 1.25706,1.72354 2.24896,1.72354 0.24552,0 0.92806,0 1.52712,-0.87895 z"
       inkscape:export-filename="/home/francescomannella/Dropbox/Projects/neunet-basics/course/linear.png"
       inkscape:export-xdpi="64.387695"
       inkscape:export-ydpi="64.387695" />
    <polyline
       transform="matrix(0.49103716,0,0,-0.49103716,181.45286,733.62525)"
       style="font-style:normal;font-variant:normal;font-weight:normal;font-stretch:normal;letter-spacing:normal;word-spacing:normal;text-anchor:start;fill:#000000;fill-rule:nonzero;stroke:#000000;stroke-width:1.01825285;stroke-linecap:butt;stroke-linejoin:miter;stroke-miterlimit:10.43299961;stroke-opacity:1;stroke-dasharray:none;stroke-dashoffset:0"
       id="polyline4570"
       points="633,413 677.64,413 677.64,414.56 633,414.56 "
       inkscape:export-filename="/home/francescomannella/Dropbox/Projects/neunet-basics/course/linear.png"
       inkscape:export-xdpi="64.387695"
       inkscape:export-ydpi="64.387695" />
    <path
       style="font-style:normal;font-variant:normal;font-weight:normal;font-stretch:normal;letter-spacing:normal;word-spacing:normal;text-anchor:start;fill:#000000;stroke:#000000;stroke-width:0.50000006;stroke-linecap:butt;stroke-linejoin:miter;stroke-miterlimit:10.43299961;stroke-opacity:1;stroke-dasharray:none;stroke-dashoffset:0"
       inkscape:connector-curvature="0"
       id="path4572"
       d="m 498.42717,539.7245 0.0148,0.0344 0.0196,0.0295 0.0245,0.0344 0.0196,0.0344 0.0295,0.0344 0.0295,0.0344 0.0294,0.0344 0.0344,0.0393 0.0344,0.0344 0.0392,0.0392 0.0392,0.0344 0.0442,0.0392 0.0491,0.0344 0.0491,0.0344 0.054,0.0344 0.0589,0.0344 0.0589,0.0344 0.0589,0.0344 0.0688,0.0295 0.0688,0.0295 0.0737,0.0295 0.0785,0.0246 0.0785,0.0245 0.0835,0.0245 0.0884,0.0196 0.0933,0.0196 0.0933,0.0148 0.0982,0.0148 0.10312,0.01 0.10803,0.01 0.11293,0.005 0.11786,0 c 2.3226,0 2.95604,-3.91847 2.95604,-4.5028 0,-0.84459 -0.49103,-1.05083 -0.70219,-1.05083 -0.383,0 -0.72182,0.39284 -0.72182,0.7071 0,0.23079 0.15713,0.35355 0.23079,0.41247 0.34863,0.26025 0.4763,0.57452 0.4763,0.93788 0,0.31427 -0.61379,3.07389 -2.1802,3.07389 -0.45666,0 -1.17358,-0.1424 -1.17358,-1.10974 0,-0.0245 0,-0.25534 0.0884,-0.62362 0.11294,-0.49103 0.46649,-1.8954 0.63344,-2.54848 0.054,-0.19151 0.054,-0.21115 0.054,-0.27498 0,-0.27007 -0.22096,-0.4272 -0.45175,-0.4272 -0.20133,0 -0.42229,0.10311 -0.53523,0.31427 -0.054,0.0835 -0.16204,0.53522 -0.24061,0.8102 -0.16695,0.69236 -0.16695,0.72183 -0.35354,1.40437 -0.0982,0.39283 -0.20624,0.8544 -0.22097,1.18831 0.0392,0.19641 0,0.25534 -0.10803,0.46157 -0.46648,0.8053 -0.98208,0.8053 -1.17358,0.8053 -0.18168,0 -0.65308,-0.0196 -0.96734,-0.28971 -0.31427,-0.2848 -0.31427,-0.73656 -0.31427,-0.86913 0,-0.49595 0.15222,-1.00172 0.66781,-2.24896 0.0982,-0.24552 0.17677,-0.42719 0.17677,-0.63343 0,-0.59907 -0.57451,-1.0852 -1.33561,-1.0852 -1.28652,0 -1.96906,1.56641 -1.96906,1.89541 0,0.17677 0.19641,0.17677 0.26025,0.17677 0.20624,0 0.21606,-0.0589 0.27498,-0.24552 0.26025,-0.84458 0.83476,-1.40436 1.37981,-1.40436 0.24061,0 0.36828,0.13258 0.36828,0.46157 0,0.24552 -0.0442,0.38301 -0.20624,0.73656 -0.64326,1.59095 -0.64326,1.90522 -0.64326,2.20475 0,1.40437 1.25706,1.72354 2.24896,1.72354 0.24552,0 0.92806,0 1.52712,-0.88386 z"
       inkscape:export-filename="/home/francescomannella/Dropbox/Projects/neunet-basics/course/linear.png"
       inkscape:export-xdpi="64.387695"
       inkscape:export-ydpi="64.387695" />
    <g
       id="g4850"
       transform="matrix(0.78660018,0,0,0.78660018,112.47076,144.70982)"
       inkscape:export-filename="/home/francescomannella/Dropbox/Projects/neunet-basics/course/linear.png"
       inkscape:export-xdpi="64.387695"
       inkscape:export-ydpi="64.387695">
      <path
         inkscape:connector-curvature="0"
         style="font-style:normal;font-variant:normal;font-weight:normal;font-stretch:normal;letter-spacing:normal;word-spacing:normal;text-anchor:start;fill:#000000;stroke:#000000;stroke-width:0.63564694;stroke-linecap:butt;stroke-linejoin:miter;stroke-miterlimit:10.43299961;stroke-opacity:1;stroke-dasharray:none;stroke-dashoffset:0"
         d="m 283.40217,648.59867 -0.006,-0.0491 0,-0.0552 -0.006,-0.0491 -0.0123,-0.0491 -0.0123,-0.0491 -0.0123,-0.0491 -0.0184,-0.0491 -0.0184,-0.0491 -0.0184,-0.0491 -0.0245,-0.0491 -0.0245,-0.0429 -0.0307,-0.0429 -0.0245,-0.0429 -0.0368,-0.0429 -0.0307,-0.0429 -0.0368,-0.0368 -0.0368,-0.0368 -0.0368,-0.0368 -0.0429,-0.0368 -0.0429,-0.0307 -0.0429,-0.0307 -0.0491,-0.0307 -0.0429,-0.0245 -0.0491,-0.0245 -0.0491,-0.0184 -0.0552,-0.0184 -0.0552,-0.0184 -0.0491,-0.0123 -0.0552,-0.0123 -0.0613,-0.006 -0.0552,-0.006 -0.0613,0 c -0.57041,0 -1.09788,0.42934 -1.09788,1.09174 0,0.66241 0.52747,1.10401 1.09788,1.10401 0.63787,0 1.09787,-0.55814 1.09787,-1.10401 z"
         id="path4743" />
      <path
         inkscape:connector-curvature="0"
         style="font-style:normal;font-variant:normal;font-weight:normal;font-stretch:normal;letter-spacing:normal;word-spacing:normal;text-anchor:start;fill:#000000;stroke:#000000;stroke-width:0.63564694;stroke-linecap:butt;stroke-linejoin:miter;stroke-miterlimit:10.43299961;stroke-opacity:1;stroke-dasharray:none;stroke-dashoffset:0"
         d="m 280.49495,652.0027 v 0.70534 c 1.20828,0 1.37388,0.13493 1.37388,1.0304 v 4.62457 c 0,0.78507 -0.184,0.78507 -1.44748,0.78507 v 0.71148 c 0.52747,-0.0368 1.95042,-0.0736 2.13442,-0.0736 0.184,0 1.57014,0.0368 2.04855,0.0736 v -0.71148 c -1.12855,0 -1.30028,0 -1.30028,-0.76667 v -6.58111 z"
         id="path4745" />
      <path
         inkscape:connector-curvature="0"
         style="font-style:normal;font-variant:normal;font-weight:normal;font-stretch:normal;letter-spacing:normal;word-spacing:normal;text-anchor:start;fill:#000000;stroke:#000000;stroke-width:0.63564694;stroke-linecap:butt;stroke-linejoin:miter;stroke-miterlimit:10.43299961;stroke-opacity:1;stroke-dasharray:none;stroke-dashoffset:0"
         d="m 295.72413,654.33951 -0.006,-0.1656 -0.006,-0.15946 -0.0184,-0.15334 -0.0184,-0.1472 -0.0307,-0.14107 -0.0307,-0.13493 -0.0368,-0.1288 -0.0429,-0.12267 -0.0491,-0.11653 -0.0552,-0.11041 -0.0613,-0.1104 -0.0675,-0.0981 -0.0736,-0.0981 -0.0797,-0.092 -0.0797,-0.0859 -0.092,-0.0797 -0.092,-0.0736 -0.0981,-0.0675 -0.10427,-0.0613 -0.1104,-0.0613 -0.11654,-0.0552 -0.11653,-0.0491 -0.1288,-0.0429 -0.1288,-0.0368 -0.13494,-0.0368 -0.14106,-0.0307 -0.14721,-0.0245 -0.1472,-0.0184 -0.15946,-0.0184 -0.15947,-0.0123 -0.1656,-0.006 -0.17174,0 c -1.60694,0 -2.61282,0.8464 -3.14029,1.71734 v -1.71734 l -2.83975,0.2024 v 0.70534 c 1.28801,0 1.44747,0.13493 1.44747,1.0304 v 4.62457 c 0,0.78507 -0.17786,0.78507 -1.44747,0.78507 v 0.71148 c 0.13493,-0.0184 1.37387,-0.0736 2.19575,-0.0736 0.828,0 2.03015,0.0552 2.21415,0.0736 v -0.71148 c -1.26348,0 -1.44748,0 -1.44748,-0.78507 v -3.22002 c 0,-2.01175 1.71735,-2.76002 2.85815,-2.76002 1.21441,0 1.51495,0.76667 1.51495,1.90134 v 4.0787 c 0,0.78507 -0.184,0.78507 -1.44748,0.78507 v 0.71148 c 0.13494,-0.0184 1.36775,-0.0736 2.18962,-0.0736 0.828,0 2.03628,0.0552 2.21415,0.0736 v -0.71148 c -1.26348,0 -1.44135,0 -1.44135,-0.78507 z"
         id="path4747" />
      <path
         inkscape:connector-curvature="0"
         style="font-style:normal;font-variant:normal;font-weight:normal;font-stretch:normal;letter-spacing:normal;word-spacing:normal;text-anchor:start;fill:#000000;stroke:#000000;stroke-width:0.63564694;stroke-linecap:butt;stroke-linejoin:miter;stroke-miterlimit:10.43299961;stroke-opacity:1;stroke-dasharray:none;stroke-dashoffset:0"
         d="m 301.48338,652.68964 h 2.99922 v -0.70534 h -2.99922 v -3.36723 h -0.68081 c -0.0184,1.63148 -0.80347,3.42243 -2.64348,3.48989 v 0.58268 h 1.80321 v 4.8883 c 0,1.91975 1.44748,2.46562 2.69255,2.46562 1.25735,0 2.17735,-1.00588 2.17735,-2.48402 v -1.00588 h -0.6808 v 0.96908 c 0,1.29414 -0.67467,1.87681 -1.35548,1.87681 -1.31254,0 -1.31254,-1.47814 -1.31254,-1.82161 z"
         id="path4749" />
      <path
         inkscape:connector-curvature="0"
         style="font-style:normal;font-variant:normal;font-weight:normal;font-stretch:normal;letter-spacing:normal;word-spacing:normal;text-anchor:start;fill:#000000;stroke:#000000;stroke-width:0.63564694;stroke-linecap:butt;stroke-linejoin:miter;stroke-miterlimit:10.43299961;stroke-opacity:1;stroke-dasharray:none;stroke-dashoffset:0"
         d="m 314.90935,655.73179 0.0307,0 0.0368,0 0.0368,0 0.0307,-0.006 0.0307,0 0.0307,0 0.0245,0 0.0307,-0.006 0.0245,0 0.0245,-0.006 0.0184,0 0.0245,-0.006 0.0184,-0.006 0.0184,-0.006 0.0184,-0.0123 0.0184,-0.006 0.0184,-0.0123 0.0123,-0.0123 0.0123,-0.0123 0.0123,-0.0184 0.0123,-0.0184 0.0123,-0.0184 0.006,-0.006 0,-0.0123 0.006,-0.0123 0.006,-0.0123 0,-0.0123 0.006,-0.0123 0,-0.0123 0.006,-0.0123 0,-0.0123 0.006,-0.0184 0,-0.0123 0.006,-0.0184 0,-0.0123 0,-0.0184 0,-0.0184 0,-0.0184 0.006,-0.0184 0,-0.0184 0,-0.0184 0,-0.0184 c 0,-1.41068 -0.78508,-3.58803 -3.82723,-3.58803 -2.55762,0 -4.41604,1.95655 -4.41604,4.1523 0,2.31228 2.09762,4.1891 4.67364,4.1891 2.63122,0 3.56963,-1.97495 3.56963,-2.37975 0,-0.0859 -0.0429,-0.28827 -0.35574,-0.28827 -0.23307,0 -0.26987,0.1104 -0.34347,0.3312 -0.54587,1.34934 -1.91975,1.69281 -2.76002,1.69281 -1.00587,0 -1.85841,-0.44773 -2.37975,-1.11014 -0.66854,-0.86481 -0.66854,-2.07308 -0.66854,-2.55762 l 0.0368,-0.54587 c 0.2024,-2.45335 1.87681,-2.89495 2.62509,-2.89495 2.35522,0 2.49015,2.35521 2.50242,2.89495 h -5.12751 l -0.0368,0.54587 z"
         id="path4751" />
      <path
         inkscape:connector-curvature="0"
         style="font-style:normal;font-variant:normal;font-weight:normal;font-stretch:normal;letter-spacing:normal;word-spacing:normal;text-anchor:start;fill:#000000;stroke:#000000;stroke-width:0.63564694;stroke-linecap:butt;stroke-linejoin:miter;stroke-miterlimit:10.43299961;stroke-opacity:1;stroke-dasharray:none;stroke-dashoffset:0"
         d="m 320.28832,655.76859 0,-0.15947 0.006,-0.15946 0.0123,-0.15947 0.0184,-0.15334 0.0245,-0.15946 0.0307,-0.15334 0.0307,-0.1472 0.0368,-0.15333 0.0429,-0.1472 0.0491,-0.14107 0.0552,-0.14107 0.0552,-0.13493 0.0613,-0.13494 0.0675,-0.1288 0.0736,-0.12267 0.0736,-0.12267 0.0859,-0.11653 0.0859,-0.1104 0.092,-0.10427 0.092,-0.0981 0.10426,-0.092 0.10427,-0.0859 0.1104,-0.0797 0.1104,-0.0736 0.12267,-0.0675 0.12267,-0.0552 0.1288,-0.0552 0.1288,-0.0429 0.13494,-0.0307 0.14106,-0.0307 0.1472,-0.0123 0.14721,-0.0123 c -0.15947,0.1656 -0.23921,0.3864 -0.23921,0.6256 0,0.49067 0.37414,0.85254 0.86481,0.85254 0.4968,0 0.86481,-0.36187 0.86481,-0.85254 0,-0.736 -0.70534,-1.20827 -1.50882,-1.20827 -1.09174,0 -2.01788,0.6624 -2.58828,1.87681 h -0.0184 v -1.87681 l -2.76002,0.2024 v 0.70534 c 1.27574,0 1.44134,0.13493 1.44134,1.0304 v 4.62457 c 0,0.78507 -0.184,0.78507 -1.44134,0.78507 v 0.71148 c 0.45387,-0.0368 1.80321,-0.0736 2.20801,-0.0736 0.95681,0 2.21415,0.0552 2.47176,0.0736 v -0.71148 h -0.40481 c -1.36774,0 -1.38614,-0.17786 -1.38614,-0.80347 z"
         id="path4753" />
      <path
         inkscape:connector-curvature="0"
         style="font-style:normal;font-variant:normal;font-weight:normal;font-stretch:normal;letter-spacing:normal;word-spacing:normal;text-anchor:start;fill:#000000;stroke:#000000;stroke-width:0.63564694;stroke-linecap:butt;stroke-linejoin:miter;stroke-miterlimit:10.43299961;stroke-opacity:1;stroke-dasharray:none;stroke-dashoffset:0"
         d="m 332.65935,652.49337 -0.0123,0.006 -0.0184,0.0123 -0.0184,0.0123 -0.0184,0.0184 -0.0123,0.0123 -0.0184,0.0184 -0.0184,0.0123 -0.0184,0.0184 -0.0123,0.0184 -0.0184,0.0184 -0.0184,0.0184 -0.0123,0.0184 -0.0184,0.0245 -0.0123,0.0184 -0.0184,0.0245 -0.0123,0.0245 -0.0123,0.0245 -0.0123,0.0245 -0.0123,0.0245 -0.0123,0.0245 -0.0123,0.0307 -0.006,0.0245 -0.0123,0.0307 -0.006,0.0307 -0.0123,0.0307 -0.006,0.0307 -0.006,0.0307 -0.006,0.0368 0,0.0307 -0.006,0.0368 0,0.0307 0,0.0368 c 0,0.47227 0.34347,0.87094 0.87094,0.87094 0.57653,0 0.9016,-0.39867 0.9016,-0.88934 0,-1.46587 -1.93201,-1.52721 -3.08509,-1.52721 -3.38562,0 -4.80857,2.41655 -4.80857,4.2075 0,2.28162 2.03015,4.1339 4.58777,4.1339 2.90722,0 3.5451,-2.17735 3.5451,-2.37975 0,-0.25761 -0.27601,-0.25761 -0.35574,-0.25761 -0.22694,0 -0.26374,0.0981 -0.34347,0.27601 -0.10427,0.28213 -0.30667,0.8096 -0.93227,1.22667 -0.39867,0.26987 -0.99974,0.49067 -1.71122,0.49067 -1.41067,0 -3.06055,-1.00587 -3.06055,-3.50829 0,-0.78507 0.1472,-1.80935 0.8096,-2.59442 0.82188,-0.95067 1.79095,-0.95067 2.33682,-0.95067 0.5152,0 1.12854,0.0184 1.62535,0.1472 z"
         id="path4755" />
      <path
         inkscape:connector-curvature="0"
         style="font-style:normal;font-variant:normal;font-weight:normal;font-stretch:normal;letter-spacing:normal;word-spacing:normal;text-anchor:start;fill:#000000;stroke:#000000;stroke-width:0.63564694;stroke-linecap:butt;stroke-linejoin:miter;stroke-miterlimit:10.43299961;stroke-opacity:1;stroke-dasharray:none;stroke-dashoffset:0"
         d="m 343.75463,655.73179 0.0368,0 0.0307,0 0.0368,0 0.0307,-0.006 0.0307,0 0.0307,0 0.0245,0 0.0307,-0.006 0.0245,0 0.0245,-0.006 0.0245,0 0.0184,-0.006 0.0184,-0.006 0.0245,-0.006 0.0184,-0.0123 0.0123,-0.006 0.0184,-0.0123 0.0123,-0.0123 0.0123,-0.0123 0.0184,-0.0184 0.006,-0.0184 0.0123,-0.0184 0.006,-0.006 0.006,-0.0123 0,-0.0123 0.006,-0.0123 0.006,-0.0123 0,-0.0123 0.006,-0.0123 0,-0.0123 0.006,-0.0123 0,-0.0184 0,-0.0123 0.006,-0.0184 0,-0.0123 0,-0.0184 0,-0.0184 0.006,-0.0184 0,-0.0184 0,-0.0184 0,-0.0184 0,-0.0184 c 0,-1.41068 -0.78507,-3.58803 -3.82723,-3.58803 -2.55762,0 -4.41603,1.95655 -4.41603,4.1523 0,2.31228 2.09761,4.1891 4.67977,4.1891 2.62508,0 3.56349,-1.97495 3.56349,-2.37975 0,-0.0859 -0.0368,-0.28827 -0.35573,-0.28827 -0.23307,0 -0.26987,0.1104 -0.34347,0.3312 -0.54588,1.34934 -1.91975,1.69281 -2.76003,1.69281 -1.00587,0 -1.85841,-0.44773 -2.37975,-1.11014 -0.66853,-0.86481 -0.66853,-2.07308 -0.66853,-2.55762 l 0.0368,-0.54587 c 0.2024,-2.45335 1.87681,-2.89495 2.62508,-2.89495 2.36135,0 2.49629,2.35521 2.50242,2.89495 h -5.1275 l -0.0368,0.54587 z"
         id="path4757" />
      <path
         inkscape:connector-curvature="0"
         style="font-style:normal;font-variant:normal;font-weight:normal;font-stretch:normal;letter-spacing:normal;word-spacing:normal;text-anchor:start;fill:#000000;stroke:#000000;stroke-width:0.63564694;stroke-linecap:butt;stroke-linejoin:miter;stroke-miterlimit:10.43299961;stroke-opacity:1;stroke-dasharray:none;stroke-dashoffset:0"
         d="m 350.64855,662.69931 -0.0613,0 -0.0552,0 -0.0552,0 -0.0552,0 -0.0491,0 -0.0491,-0.006 -0.0491,0 -0.0491,0 -0.0491,0 -0.0429,0 -0.0429,0 -0.0429,0 -0.0429,0 -0.0368,-0.006 -0.0368,0 -0.0368,0 -0.0368,-0.006 -0.0368,0 -0.0307,-0.006 -0.0307,0 -0.0613,-0.0123 -0.0613,-0.006 -0.0491,-0.0123 -0.0491,-0.0123 -0.0429,-0.0184 -0.0368,-0.0123 -0.0368,-0.0245 -0.0368,-0.0184 -0.0245,-0.0245 -0.0307,-0.0307 -0.0184,-0.0307 -0.0245,-0.0307 -0.0184,-0.0368 -0.0123,-0.0368 -0.0123,-0.0429 -0.0123,-0.0491 -0.006,-0.0491 -0.006,-0.0552 -0.006,-0.0613 0,-0.0613 -0.006,-0.0675 0,-0.0736 v -2.93176 c 0.74828,0.72374 1.60082,1.06721 2.60669,1.06721 l -0.10427,-0.58881 c -1.41067,0 -2.23255,-1.00587 -2.50242,-1.53334 v -4.10937 c 0.61334,-0.85867 1.61922,-1.36774 2.70483,-1.36774 1.65601,0 2.88268,1.60081 2.88268,3.46536 0,2.05468 -1.45361,3.54509 -3.08509,3.54509 l 0.10427,0.58881 c 2.53922,0 4.71657,-1.81548 4.71657,-4.1339 0,-2.21415 -1.91361,-4.10936 -4.44057,-4.10936 -1.66214,0 -2.68028,0.82187 -2.95629,1.07334 v -1.07334 l -2.88882,0.2024 v 0.70534 c 1.23895,0 1.44135,0 1.44135,0.8464 v 8.35367 c 0,0.7912 -0.184,0.7912 -1.44135,0.7912 v 0.70534 c 0.1288,-0.0184 1.37388,-0.0736 2.18962,-0.0736 0.82187,0 2.03015,0.0552 2.21415,0.0736 z"
         id="path4759" />
      <path
         inkscape:connector-curvature="0"
         style="font-style:normal;font-variant:normal;font-weight:normal;font-stretch:normal;letter-spacing:normal;word-spacing:normal;text-anchor:start;fill:#000000;stroke:#000000;stroke-width:0.63564694;stroke-linecap:butt;stroke-linejoin:miter;stroke-miterlimit:10.43299961;stroke-opacity:1;stroke-dasharray:none;stroke-dashoffset:0"
         d="m 361.5353,652.68964 h 2.99922 v -0.70534 h -2.99922 v -3.36723 h -0.68081 c -0.0245,1.63148 -0.8096,3.42243 -2.64962,3.48989 v 0.58268 h 1.80322 v 4.8883 c 0,1.91975 1.44747,2.46562 2.69255,2.46562 1.25734,0 2.17735,-1.00588 2.17735,-2.48402 v -1.00588 h -0.68081 v 0.96908 c 0,1.29414 -0.66853,1.87681 -1.34934,1.87681 -1.31254,0 -1.31254,-1.47814 -1.31254,-1.82161 z"
         id="path4761" />
    </g>
    <path
       style="fill:none;stroke:#000000;stroke-width:3;stroke-linecap:butt;stroke-linejoin:miter;stroke-miterlimit:4;stroke-opacity:1;stroke-dasharray:none;marker-start:none;marker-end:url(#Arrow2Mend)"
       d="M 323.20583,657.99177 286.14094,644.64841"
       id="path4862"
       inkscape:connector-curvature="0"
       sodipodi:nodetypes="cc"
       inkscape:export-filename="/home/francescomannella/Dropbox/Projects/neunet-basics/course/linear.png"
       inkscape:export-xdpi="64.387695"
       inkscape:export-ydpi="64.387695" />
    <text
       xml:space="preserve"
       style="font-size:11px;font-style:normal;font-variant:normal;font-weight:normal;font-stretch:normal;text-align:start;line-height:125%;letter-spacing:0px;word-spacing:0px;writing-mode:lr-tb;text-anchor:start;fill:#000000;fill-opacity:1;stroke:none;font-family:Sans;-inkscape-font-specification:Sans"
       x="306.52814"
       y="466.52655"
       id="text5524"
       sodipodi:linespacing="125%"
       inkscape:export-filename="/home/francescomannella/Dropbox/Projects/neunet-basics/course/linear.png"
       inkscape:export-xdpi="64.387695"
       inkscape:export-ydpi="64.387695"><tspan
         sodipodi:role="line"
         id="tspan5526"
         x="306.52814"
         y="466.52655">Points belonging </tspan><tspan
         sodipodi:role="line"
         x="306.52814"
         y="480.27655"
         id="tspan5534">to the class</tspan></text>
    <text
       sodipodi:linespacing="125%"
       id="text5528"
       y="590.20294"
       x="402.98392"
       style="font-size:11px;font-style:normal;font-variant:normal;font-weight:normal;font-stretch:normal;text-align:start;line-height:125%;letter-spacing:0px;word-spacing:0px;writing-mode:lr-tb;text-anchor:start;fill:#000000;fill-opacity:1;stroke:none;font-family:Sans;-inkscape-font-specification:Sans"
       xml:space="preserve"
       inkscape:export-filename="/home/francescomannella/Dropbox/Projects/neunet-basics/course/linear.png"
       inkscape:export-xdpi="64.387695"
       inkscape:export-ydpi="64.387695"><tspan
         y="590.20294"
         x="402.98392"
         id="tspan5530"
         sodipodi:role="line">Points not </tspan><tspan
         y="603.95294"
         x="402.98392"
         sodipodi:role="line"
         id="tspan5536">belonging </tspan><tspan
         y="617.70294"
         x="402.98392"
         sodipodi:role="line"
         id="tspan5532">to the class</tspan></text>
    <path
       d="m 509.28891,520.34125 0,-0.0148 0,-0.0148 0,-0.0196 0,-0.0148 0,-0.0148 0,-0.0148 0,-0.0148 0,-0.01 -0.005,-0.0148 0,-0.0148 0,-0.01 0,-0.01 0,-0.0148 -0.005,-0.01 0,-0.01 0,-0.01 -0.005,-0.01 0,-0.01 -0.005,-0.0148 -0.005,-0.0148 -0.01,-0.0148 -0.005,-0.0148 -0.01,-0.01 -0.01,-0.01 -0.01,-0.01 -0.0148,-0.01 -0.01,-0.005 -0.0148,-0.01 -0.0196,-0.005 -0.0148,-0.005 -0.0196,0 -0.0196,-0.005 -0.01,0 -0.01,0 -0.0148,-0.005 -0.01,0 -0.0148,0 -0.01,0 -0.0148,0 -0.0148,0 -0.0148,0 -0.0148,0 -0.0148,-0.005 -0.0148,0 -0.0196,0 -0.0148,0 -0.0148,0 -0.0196,0 -0.0196,0 -0.0196,0 c -0.86422,0.78566 -2.22439,0.78566 -2.46991,0.78566 h -0.20623 v 0.53523 h 0.20623 c 0.2848,0 1.07537,-0.0295 1.78737,-0.33882 v 6.11833 c 0,0.37319 0,0.51068 -1.29634,0.51068 h -0.61379 v 0.54013 c 0.67762,-0.0491 1.76773,-0.0491 2.46991,-0.0491 0.71692,0 1.80702,0 2.47483,0.0491 v -0.54013 h -0.60889 c -1.29633,0 -1.29633,-0.13749 -1.29633,-0.51068 z"
       id="path3040"
       inkscape:connector-curvature="0"
       style="font-style:normal;font-variant:normal;font-weight:normal;font-stretch:normal;letter-spacing:normal;word-spacing:normal;text-anchor:start;fill:#000000;stroke:#000000;stroke-width:0.50000006;stroke-linecap:butt;stroke-linejoin:miter;stroke-miterlimit:10.43299961;stroke-opacity:1;stroke-dasharray:none;stroke-dashoffset:0"
       inkscape:export-filename="/home/francescomannella/Dropbox/Projects/neunet-basics/course/linear.png"
       inkscape:export-xdpi="64.387695"
       inkscape:export-ydpi="64.387695" />
    <path
       inkscape:export-ydpi="64.387695"
       inkscape:export-xdpi="64.387695"
       inkscape:export-filename="/home/francescomannella/Dropbox/Projects/neunet-basics/course/linear.png"
       inkscape:connector-curvature="0"
       style="font-style:normal;font-variant:normal;font-weight:normal;font-stretch:normal;letter-spacing:normal;word-spacing:normal;text-anchor:start;fill:#000000;stroke:#000000;stroke-width:0.5;stroke-linecap:butt;stroke-linejoin:miter;stroke-miterlimit:10.43299961;stroke-opacity:1;stroke-dasharray:none;stroke-dashoffset:0"
       d="m 511.20539,542.2138 h -0.50657 c -0.0386,0.23157 -0.15439,0.96973 -0.34736,1.09034 -0.0965,0.0772 -1.10482,0.0772 -1.28816,0.0772 h -2.34953 c 0.79122,-0.58859 1.67893,-1.2592 2.40261,-1.74165 1.08069,-0.7478 2.08901,-1.44736 2.08901,-2.72103 0,-1.53902 -1.457,-2.39296 -3.17453,-2.39296 -1.62103,0 -2.81269,0.94561 -2.81269,2.12279 0,0.62236 0.53069,0.7285 0.70437,0.7285 0.32325,0 0.70921,-0.2171 0.70921,-0.70921 0,-0.42938 -0.31842,-0.6706 -0.6899,-0.7092 0.33289,-0.54034 1.03244,-0.90219 1.84296,-0.90219 1.15788,0 2.13244,0.69956 2.13244,1.87675 0,1.00832 -0.69473,1.78024 -1.62104,2.56181 l -2.93331,2.48946 c -0.12061,0.10613 -0.12544,0.10613 -0.14473,0.18815 v 0.36184 h 5.58678 z"
       id="path3042" />
    <g
       id="g3054"
       transform="translate(-165.69088,130.1857)"
       inkscape:export-filename="/home/francescomannella/Dropbox/Projects/neunet-basics/course/linear.png"
       inkscape:export-xdpi="64.387695"
       inkscape:export-ydpi="64.387695">
      <path
         d="m 591.76864,523.53844 0,-0.0884 0,-0.10312 -0.005,-0.11785 0,-0.12767 -0.01,-0.13748 -0.005,-0.14241 -0.0148,-0.15713 -0.0148,-0.16205 -0.0245,-0.16694 -0.0245,-0.17187 -0.0344,-0.17186 -0.0344,-0.18168 -0.0491,-0.18169 -0.054,-0.17678 -0.0589,-0.18168 -0.0688,-0.18168 -0.0835,-0.17677 -0.0884,-0.17187 -0.0982,-0.16695 -0.11295,-0.16204 -0.12276,-0.15713 -0.13257,-0.14731 -0.0737,-0.0688 -0.0786,-0.0688 -0.0785,-0.0639 -0.0785,-0.0638 -0.0884,-0.0589 -0.0884,-0.0589 -0.0933,-0.054 -0.0982,-0.0491 -0.0982,-0.0491 -0.10802,-0.0442 -0.10803,-0.0392 -0.11294,-0.0392 -0.11295,-0.0344 -0.12276,-0.0245 -0.12275,-0.0295 -0.13258,-0.0196 -0.13259,-0.0148 -0.13749,-0.0148 -0.1424,-0.005 -0.1473,0 c -3.19175,0 -3.19175,3.34887 -3.19175,4.23275 0,0.88877 0,4.18363 3.19175,4.18363 v -0.40756 c -0.45176,0 -1.48294,-0.15222 -1.78738,-1.38964 -0.17186,-0.65799 -0.18659,-1.53694 -0.18659,-2.53375 0,-0.90351 0,-1.74809 0.20132,-2.44537 0.30444,-1.02626 1.24724,-1.23741 1.77265,-1.23741 0.90351,0 1.55658,0.46158 1.79228,1.32089 0.17678,0.62362 0.17678,1.64006 0.17678,2.36189 0,0.82986 0,1.82175 -0.18169,2.55831 -0.32408,1.18831 -1.29634,1.36508 -1.78737,1.36508 h 0 v 0.40756 c 3.19173,0 3.19173,-3.29486 3.19173,-4.18363 z"
         id="path4568"
         inkscape:connector-curvature="0"
         style="font-style:normal;font-variant:normal;font-weight:normal;font-stretch:normal;letter-spacing:normal;word-spacing:normal;text-anchor:start;fill:#000000;stroke:#000000;stroke-width:0.50000006;stroke-linecap:butt;stroke-linejoin:miter;stroke-miterlimit:10.43299961;stroke-opacity:1;stroke-dasharray:none;stroke-dashoffset:0" />
      <path
         style="font-style:normal;font-variant:normal;font-weight:normal;font-stretch:normal;letter-spacing:normal;word-spacing:normal;text-anchor:start;fill:#000000;stroke:#000000;stroke-width:0.50000006;stroke-linecap:butt;stroke-linejoin:miter;stroke-miterlimit:10.43299961;stroke-opacity:1;stroke-dasharray:none;stroke-dashoffset:0"
         inkscape:connector-curvature="0"
         id="path3044"
         d="m 578.42717,523.05722 0.0148,0.0295 0.0196,0.0295 0.0245,0.0344 0.0196,0.0344 0.0295,0.0344 0.0295,0.0344 0.0294,0.0344 0.0344,0.0392 0.0344,0.0344 0.0392,0.0392 0.0392,0.0344 0.0442,0.0393 0.0491,0.0344 0.0491,0.0344 0.054,0.0344 0.0589,0.0344 0.0589,0.0344 0.0589,0.0344 0.0688,0.0294 0.0688,0.0295 0.0737,0.0295 0.0785,0.0295 0.0785,0.0245 0.0835,0.0196 0.0884,0.0196 0.0933,0.0196 0.0933,0.0148 0.0982,0.0148 0.10312,0.01 0.10803,0.01 0.11293,0.005 0.11786,0 c 2.3226,0 2.95604,-3.91847 2.95604,-4.50281 0,-0.84458 -0.49103,-1.05082 -0.70219,-1.05082 -0.383,0 -0.72182,0.39283 -0.72182,0.7071 0,0.23079 0.15713,0.35355 0.23079,0.41246 0.34863,0.26026 0.4763,0.57452 0.4763,0.93789 0,0.31426 -0.61379,3.07389 -2.1802,3.07389 -0.45666,0 -1.17358,-0.1424 -1.17358,-1.10974 0,-0.0246 0,-0.25534 0.0884,-0.62361 0.11294,-0.49105 0.46649,-1.89541 0.63344,-2.54849 0.054,-0.19151 0.054,-0.21115 0.054,-0.27499 0,-0.26515 -0.22096,-0.4272 -0.45175,-0.4272 -0.20133,0 -0.42229,0.10803 -0.53523,0.31427 -0.054,0.0835 -0.16204,0.53522 -0.24061,0.81021 -0.16695,0.69237 -0.16695,0.72182 -0.35354,1.40437 -0.0982,0.39283 -0.20624,0.8544 -0.22097,1.19321 0.0392,0.19151 0,0.25043 -0.10803,0.45667 -0.46648,0.8053 -0.98208,0.8053 -1.17358,0.8053 -0.18168,0 -0.65308,-0.0196 -0.96734,-0.28971 -0.31427,-0.2848 -0.31427,-0.73656 -0.31427,-0.86913 0,-0.49596 0.15222,-1.00172 0.66781,-2.24405 0.0982,-0.24551 0.17677,-0.43211 0.17677,-0.63834 0,-0.59907 -0.57451,-1.08029 -1.33561,-1.08029 -1.28652,0 -1.96906,1.5615 -1.96906,1.89541 0,0.17186 0.19641,0.17186 0.26025,0.17186 0.20624,0 0.21606,-0.0589 0.27498,-0.24552 0.26025,-0.83967 0.83476,-1.39945 1.37981,-1.39945 0.24061,0 0.36828,0.12766 0.36828,0.45666 0,0.24552 -0.0442,0.38301 -0.20624,0.73655 -0.64326,1.59097 -0.64326,1.90523 -0.64326,2.20476 0,1.40437 1.25706,1.72354 2.24896,1.72354 0.24552,0 0.92806,0 1.52712,-0.87895 z" />
      <polyline
         transform="matrix(0.49103716,0,0,-0.49103716,261.45286,733.62525)"
         style="font-style:normal;font-variant:normal;font-weight:normal;font-stretch:normal;letter-spacing:normal;word-spacing:normal;text-anchor:start;fill:#000000;fill-rule:nonzero;stroke:#000000;stroke-width:1.01825285;stroke-linecap:butt;stroke-linejoin:miter;stroke-miterlimit:10.43299961;stroke-opacity:1;stroke-dasharray:none;stroke-dashoffset:0"
         id="polyline3046"
         points="633,413 677.64,413 677.64,414.56 633,414.56 " />
      <path
         style="font-style:normal;font-variant:normal;font-weight:normal;font-stretch:normal;letter-spacing:normal;word-spacing:normal;text-anchor:start;fill:#000000;stroke:#000000;stroke-width:0.50000006;stroke-linecap:butt;stroke-linejoin:miter;stroke-miterlimit:10.43299961;stroke-opacity:1;stroke-dasharray:none;stroke-dashoffset:0"
         inkscape:connector-curvature="0"
         id="path3048"
         d="m 578.42717,539.7245 0.0148,0.0344 0.0196,0.0295 0.0245,0.0344 0.0196,0.0344 0.0295,0.0344 0.0295,0.0344 0.0294,0.0344 0.0344,0.0393 0.0344,0.0344 0.0392,0.0392 0.0392,0.0344 0.0442,0.0392 0.0491,0.0344 0.0491,0.0344 0.054,0.0344 0.0589,0.0344 0.0589,0.0344 0.0589,0.0344 0.0688,0.0295 0.0688,0.0295 0.0737,0.0295 0.0785,0.0246 0.0785,0.0245 0.0835,0.0245 0.0884,0.0196 0.0933,0.0196 0.0933,0.0148 0.0982,0.0148 0.10312,0.01 0.10803,0.01 0.11293,0.005 0.11786,0 c 2.3226,0 2.95604,-3.91847 2.95604,-4.5028 0,-0.84459 -0.49103,-1.05083 -0.70219,-1.05083 -0.383,0 -0.72182,0.39284 -0.72182,0.7071 0,0.23079 0.15713,0.35355 0.23079,0.41247 0.34863,0.26025 0.4763,0.57452 0.4763,0.93788 0,0.31427 -0.61379,3.07389 -2.1802,3.07389 -0.45666,0 -1.17358,-0.1424 -1.17358,-1.10974 0,-0.0245 0,-0.25534 0.0884,-0.62362 0.11294,-0.49103 0.46649,-1.8954 0.63344,-2.54848 0.054,-0.19151 0.054,-0.21115 0.054,-0.27498 0,-0.27007 -0.22096,-0.4272 -0.45175,-0.4272 -0.20133,0 -0.42229,0.10311 -0.53523,0.31427 -0.054,0.0835 -0.16204,0.53522 -0.24061,0.8102 -0.16695,0.69236 -0.16695,0.72183 -0.35354,1.40437 -0.0982,0.39283 -0.20624,0.8544 -0.22097,1.18831 0.0392,0.19641 0,0.25534 -0.10803,0.46157 -0.46648,0.8053 -0.98208,0.8053 -1.17358,0.8053 -0.18168,0 -0.65308,-0.0196 -0.96734,-0.28971 -0.31427,-0.2848 -0.31427,-0.73656 -0.31427,-0.86913 0,-0.49595 0.15222,-1.00172 0.66781,-2.24896 0.0982,-0.24552 0.17677,-0.42719 0.17677,-0.63343 0,-0.59907 -0.57451,-1.0852 -1.33561,-1.0852 -1.28652,0 -1.96906,1.56641 -1.96906,1.89541 0,0.17677 0.19641,0.17677 0.26025,0.17677 0.20624,0 0.21606,-0.0589 0.27498,-0.24552 0.26025,-0.84458 0.83476,-1.40436 1.37981,-1.40436 0.24061,0 0.36828,0.13258 0.36828,0.46157 0,0.24552 -0.0442,0.38301 -0.20624,0.73656 -0.64326,1.59095 -0.64326,1.90522 -0.64326,2.20475 0,1.40437 1.25706,1.72354 2.24896,1.72354 0.24552,0 0.92806,0 1.52712,-0.88386 z" />
      <path
         inkscape:export-ydpi="64.387695"
         inkscape:export-xdpi="64.387695"
         inkscape:export-filename="/home/francescomannella/Dropbox/Projects/neunet-basics/course/linear.png"
         inkscape:connector-curvature="0"
         style="font-style:normal;font-variant:normal;font-weight:normal;font-stretch:normal;letter-spacing:normal;word-spacing:normal;text-anchor:start;fill:#000000;stroke:#000000;stroke-width:0.5;stroke-linecap:butt;stroke-linejoin:miter;stroke-miterlimit:10.43299961;stroke-opacity:1;stroke-dasharray:none;stroke-dashoffset:0"
         d="m 591.20539,542.2138 h -0.50657 c -0.0386,0.23157 -0.15439,0.96973 -0.34736,1.09034 -0.0965,0.0772 -1.10482,0.0772 -1.28816,0.0772 h -2.34953 c 0.79122,-0.58859 1.67893,-1.2592 2.40261,-1.74165 1.08069,-0.7478 2.08901,-1.44736 2.08901,-2.72103 0,-1.53902 -1.457,-2.39296 -3.17453,-2.39296 -1.62103,0 -2.81269,0.94561 -2.81269,2.12279 0,0.62236 0.53069,0.7285 0.70437,0.7285 0.32325,0 0.70921,-0.2171 0.70921,-0.70921 0,-0.42938 -0.31842,-0.6706 -0.6899,-0.7092 0.33289,-0.54034 1.03244,-0.90219 1.84296,-0.90219 1.15788,0 2.13244,0.69956 2.13244,1.87675 0,1.00832 -0.69473,1.78024 -1.62104,2.56181 l -2.93331,2.48946 c -0.12061,0.10613 -0.12544,0.10613 -0.14473,0.18815 v 0.36184 h 5.58678 z"
         id="path3052" />
    </g>
  </g>
</svg>
