<?xml version="1.0" encoding="UTF-8" standalone="no"?>
<!-- Created with Inkscape (http://www.inkscape.org/) -->

<svg
   xmlns:dc="http://purl.org/dc/elements/1.1/"
   xmlns:cc="http://creativecommons.org/ns#"
   xmlns:rdf="http://www.w3.org/1999/02/22-rdf-syntax-ns#"
   xmlns:svg="http://www.w3.org/2000/svg"
   xmlns="http://www.w3.org/2000/svg"
   xmlns:sodipodi="http://sodipodi.sourceforge.net/DTD/sodipodi-0.dtd"
   xmlns:inkscape="http://www.inkscape.org/namespaces/inkscape"
   width="217.32777"
   height="209.94431"
   id="svg2"
   version="1.1"
   inkscape:version="0.48.5 r10040"
   sodipodi:docname="perceptron.svg"
   inkscape:export-filename="/home/francescomannella/Dropbox/Projects/neunet-basics/course/perceptron.png"
   inkscape:export-xdpi="82.819214"
   inkscape:export-ydpi="82.819214">
  <sodipodi:namedview
     id="base"
     pagecolor="#ffffff"
     bordercolor="#666666"
     borderopacity="1.0"
     inkscape:pageopacity="0.0"
     inkscape:pageshadow="2"
     inkscape:zoom="0.75456128"
     inkscape:cx="134.34616"
     inkscape:cy="199.27325"
     inkscape:document-units="px"
     inkscape:current-layer="layer1"
     showgrid="false"
     showguides="true"
     inkscape:guide-bbox="true"
     inkscape:window-width="905"
     inkscape:window-height="710"
     inkscape:window-x="0"
     inkscape:window-y="26"
     inkscape:window-maximized="0"
     fit-margin-top="0"
     fit-margin-left="0"
     fit-margin-right="0"
     fit-margin-bottom="0">
    <sodipodi:guide
       orientation="1,0"
       position="318.26888,-139.2359"
       id="guide5235" />
  </sodipodi:namedview>
  <defs
     id="defs4">
    <marker
       style="overflow:visible"
       id="Arrow1Mend"
       refX="0"
       refY="0"
       orient="auto"
       inkscape:stockid="Arrow1Mend">
      <path
         inkscape:connector-curvature="0"
         transform="matrix(-0.4,0,0,-0.4,-4,0)"
         style="fill-rule:evenodd;stroke:#000000;stroke-width:1pt"
         d="M 0,0 5,-5 -12.5,0 5,5 0,0 z"
         id="path3980" />
    </marker>
    <marker
       style="overflow:visible"
       id="Arrow2Mend"
       refX="0"
       refY="0"
       orient="auto"
       inkscape:stockid="Arrow2Mend">
      <path
         inkscape:connector-curvature="0"
         transform="scale(-0.6,-0.6)"
         d="M 8.7185878,4.0337352 -2.2072895,0.01601326 8.7185884,-4.0017078 c -1.7454984,2.3720609 -1.7354408,5.6174519 -6e-7,8.035443 z"
         style="fill-rule:evenodd;stroke-width:0.625;stroke-linejoin:round"
         id="path3998" />
    </marker>
    <marker
       style="overflow:visible"
       id="Arrow2Mstart"
       refX="0"
       refY="0"
       orient="auto"
       inkscape:stockid="Arrow2Mstart">
      <path
         inkscape:connector-curvature="0"
         transform="scale(0.6,0.6)"
         d="M 8.7185878,4.0337352 -2.2072895,0.01601326 8.7185884,-4.0017078 c -1.7454984,2.3720609 -1.7354408,5.6174519 -6e-7,8.035443 z"
         style="fill-rule:evenodd;stroke-width:0.625;stroke-linejoin:round"
         id="path3995" />
    </marker>
    <marker
       style="overflow:visible"
       id="Arrow2MstartZ"
       refX="0"
       refY="0"
       orient="auto"
       inkscape:stockid="Arrow2MstartZ">
      <path
         inkscape:connector-curvature="0"
         transform="scale(0.6,0.6)"
         d="M 8.7185878,4.0337352 -2.2072895,0.01601326 8.7185884,-4.0017078 c -1.7454984,2.3720609 -1.7354408,5.6174519 -6e-7,8.035443 z"
         style="fill:#ffffff;fill-rule:evenodd;stroke:#ffffff;stroke-width:0.625;stroke-linejoin:round"
         id="path5080" />
    </marker>
    <marker
       style="overflow:visible"
       id="Arrow2MendA"
       refX="0"
       refY="0"
       orient="auto"
       inkscape:stockid="Arrow2MendA">
      <path
         inkscape:connector-curvature="0"
         transform="scale(-0.6,-0.6)"
         d="M 8.7185878,4.0337352 -2.2072895,0.01601326 8.7185884,-4.0017078 c -1.7454984,2.3720609 -1.7354408,5.6174519 -6e-7,8.035443 z"
         style="fill:#ffffff;fill-rule:evenodd;stroke:#ffffff;stroke-width:0.625;stroke-linejoin:round"
         id="path5083" />
    </marker>
    <marker
       style="overflow:visible"
       id="Arrow2MstartY"
       refX="0"
       refY="0"
       orient="auto"
       inkscape:stockid="Arrow2MstartY">
      <path
         inkscape:connector-curvature="0"
         transform="scale(0.6,0.6)"
         d="M 8.7185878,4.0337352 -2.2072895,0.01601326 8.7185884,-4.0017078 c -1.7454984,2.3720609 -1.7354408,5.6174519 -6e-7,8.035443 z"
         style="fill:#ffffff;fill-rule:evenodd;stroke:#ffffff;stroke-width:0.625;stroke-linejoin:round"
         id="path5282" />
    </marker>
    <marker
       style="overflow:visible"
       id="Arrow2MendI"
       refX="0"
       refY="0"
       orient="auto"
       inkscape:stockid="Arrow2MendI">
      <path
         inkscape:connector-curvature="0"
         transform="scale(-0.6,-0.6)"
         d="M 8.7185878,4.0337352 -2.2072895,0.01601326 8.7185884,-4.0017078 c -1.7454984,2.3720609 -1.7354408,5.6174519 -6e-7,8.035443 z"
         style="fill:#ffffff;fill-rule:evenodd;stroke:#ffffff;stroke-width:0.625;stroke-linejoin:round"
         id="path5285" />
    </marker>
    <marker
       style="overflow:visible"
       id="Arrow2MstartX"
       refX="0"
       refY="0"
       orient="auto"
       inkscape:stockid="Arrow2MstartX">
      <path
         inkscape:connector-curvature="0"
         transform="scale(0.6,0.6)"
         d="M 8.7185878,4.0337352 -2.2072895,0.01601326 8.7185884,-4.0017078 c -1.7454984,2.3720609 -1.7354408,5.6174519 -6e-7,8.035443 z"
         style="fill:#ffffff;fill-rule:evenodd;stroke:#ffffff;stroke-width:0.625;stroke-linejoin:round"
         id="path5492" />
    </marker>
    <marker
       style="overflow:visible"
       id="Arrow2Mendn"
       refX="0"
       refY="0"
       orient="auto"
       inkscape:stockid="Arrow2Mendn">
      <path
         inkscape:connector-curvature="0"
         transform="scale(-0.6,-0.6)"
         d="M 8.7185878,4.0337352 -2.2072895,0.01601326 8.7185884,-4.0017078 c -1.7454984,2.3720609 -1.7354408,5.6174519 -6e-7,8.035443 z"
         style="fill:#ffffff;fill-rule:evenodd;stroke:#ffffff;stroke-width:0.625;stroke-linejoin:round"
         id="path5495" />
    </marker>
    <marker
       style="overflow:visible"
       id="Arrow2MstartYk"
       refX="0"
       refY="0"
       orient="auto"
       inkscape:stockid="Arrow2MstartYk">
      <path
         inkscape:connector-curvature="0"
         transform="scale(0.6,0.6)"
         d="M 8.7185878,4.0337352 -2.2072895,0.01601326 8.7185884,-4.0017078 c -1.7454984,2.3720609 -1.7354408,5.6174519 -6e-7,8.035443 z"
         style="fill:#ffffff;fill-rule:evenodd;stroke:#ffffff;stroke-width:0.625;stroke-linejoin:round"
         id="path5712" />
    </marker>
    <marker
       style="overflow:visible"
       id="Arrow2MendV"
       refX="0"
       refY="0"
       orient="auto"
       inkscape:stockid="Arrow2MendV">
      <path
         inkscape:connector-curvature="0"
         transform="scale(-0.6,-0.6)"
         d="M 8.7185878,4.0337352 -2.2072895,0.01601326 8.7185884,-4.0017078 c -1.7454984,2.3720609 -1.7354408,5.6174519 -6e-7,8.035443 z"
         style="fill:#ffffff;fill-rule:evenodd;stroke:#ffffff;stroke-width:0.625;stroke-linejoin:round"
         id="path5715" />
    </marker>
    <marker
       style="overflow:visible"
       id="Arrow2MstartYkv"
       refX="0"
       refY="0"
       orient="auto"
       inkscape:stockid="Arrow2MstartYkv">
      <path
         inkscape:connector-curvature="0"
         transform="scale(0.6,0.6)"
         d="M 8.7185878,4.0337352 -2.2072895,0.01601326 8.7185884,-4.0017078 c -1.7454984,2.3720609 -1.7354408,5.6174519 -6e-7,8.035443 z"
         style="fill:#ff0000;fill-rule:evenodd;stroke:#ff0000;stroke-width:0.625;stroke-linejoin:round"
         id="path5940" />
    </marker>
    <marker
       style="overflow:visible"
       id="Arrow2MendVx"
       refX="0"
       refY="0"
       orient="auto"
       inkscape:stockid="Arrow2MendVx">
      <path
         inkscape:connector-curvature="0"
         transform="scale(-0.6,-0.6)"
         d="M 8.7185878,4.0337352 -2.2072895,0.01601326 8.7185884,-4.0017078 c -1.7454984,2.3720609 -1.7354408,5.6174519 -6e-7,8.035443 z"
         style="fill:#ff0000;fill-rule:evenodd;stroke:#ff0000;stroke-width:0.625;stroke-linejoin:round"
         id="path5943" />
    </marker>
    <marker
       style="overflow:visible"
       id="Arrow2MstartXH"
       refX="0"
       refY="0"
       orient="auto"
       inkscape:stockid="Arrow2MstartXH">
      <path
         inkscape:connector-curvature="0"
         transform="scale(0.6,0.6)"
         d="M 8.7185878,4.0337352 -2.2072895,0.01601326 8.7185884,-4.0017078 c -1.7454984,2.3720609 -1.7354408,5.6174519 -6e-7,8.035443 z"
         style="fill:#ff0000;fill-rule:evenodd;stroke:#ff0000;stroke-width:0.625;stroke-linejoin:round"
         id="path6219" />
    </marker>
    <marker
       style="overflow:visible"
       id="Arrow2Mendne"
       refX="0"
       refY="0"
       orient="auto"
       inkscape:stockid="Arrow2Mendne">
      <path
         inkscape:connector-curvature="0"
         transform="scale(-0.6,-0.6)"
         d="M 8.7185878,4.0337352 -2.2072895,0.01601326 8.7185884,-4.0017078 c -1.7454984,2.3720609 -1.7354408,5.6174519 -6e-7,8.035443 z"
         style="fill:#ff0000;fill-rule:evenodd;stroke:#ff0000;stroke-width:0.625;stroke-linejoin:round"
         id="path6222" />
    </marker>
    <marker
       style="overflow:visible"
       id="Arrow2MstartYx"
       refX="0"
       refY="0"
       orient="auto"
       inkscape:stockid="Arrow2MstartYx">
      <path
         inkscape:connector-curvature="0"
         transform="scale(0.6,0.6)"
         d="M 8.7185878,4.0337352 -2.2072895,0.01601326 8.7185884,-4.0017078 c -1.7454984,2.3720609 -1.7354408,5.6174519 -6e-7,8.035443 z"
         style="fill:#ff0000;fill-rule:evenodd;stroke:#ff0000;stroke-width:0.625;stroke-linejoin:round"
         id="path6463" />
    </marker>
    <marker
       style="overflow:visible"
       id="Arrow2MendI8"
       refX="0"
       refY="0"
       orient="auto"
       inkscape:stockid="Arrow2MendI8">
      <path
         inkscape:connector-curvature="0"
         transform="scale(-0.6,-0.6)"
         d="M 8.7185878,4.0337352 -2.2072895,0.01601326 8.7185884,-4.0017078 c -1.7454984,2.3720609 -1.7354408,5.6174519 -6e-7,8.035443 z"
         style="fill:#ff0000;fill-rule:evenodd;stroke:#ff0000;stroke-width:0.625;stroke-linejoin:round"
         id="path6466" />
    </marker>
    <marker
       style="overflow:visible"
       id="Arrow2MstartZS"
       refX="0"
       refY="0"
       orient="auto"
       inkscape:stockid="Arrow2MstartZS">
      <path
         inkscape:connector-curvature="0"
         transform="scale(0.6,0.6)"
         d="M 8.7185878,4.0337352 -2.2072895,0.01601326 8.7185884,-4.0017078 c -1.7454984,2.3720609 -1.7354408,5.6174519 -6e-7,8.035443 z"
         style="fill:#ff0000;fill-rule:evenodd;stroke:#ff0000;stroke-width:0.625;stroke-linejoin:round"
         id="path6715" />
    </marker>
    <marker
       style="overflow:visible"
       id="Arrow2MendA0"
       refX="0"
       refY="0"
       orient="auto"
       inkscape:stockid="Arrow2MendA0">
      <path
         inkscape:connector-curvature="0"
         transform="scale(-0.6,-0.6)"
         d="M 8.7185878,4.0337352 -2.2072895,0.01601326 8.7185884,-4.0017078 c -1.7454984,2.3720609 -1.7354408,5.6174519 -6e-7,8.035443 z"
         style="fill:#ff0000;fill-rule:evenodd;stroke:#ff0000;stroke-width:0.625;stroke-linejoin:round"
         id="path6718" />
    </marker>
  </defs>
  <metadata
     id="metadata7">
    <rdf:RDF>
      <cc:Work
         rdf:about="">
        <dc:format>image/svg+xml</dc:format>
        <dc:type
           rdf:resource="http://purl.org/dc/dcmitype/StillImage" />
        <dc:title></dc:title>
      </cc:Work>
    </rdf:RDF>
  </metadata>
  <g
     transform="translate(-200.11404,-279.80223)"
     id="layer1"
     inkscape:groupmode="layer"
     inkscape:label="Layer 1">
    <path
       transform="translate(325.00431,14.281394)"
       d="m 91.438892,414.17743 c 0,10.30855 -8.35673,18.66528 -18.665279,18.66528 -10.308549,0 -18.665279,-8.35673 -18.665279,-18.66528 0,-10.30855 8.35673,-18.66528 18.665279,-18.66528 10.308549,0 18.665279,8.35673 18.665279,18.66528 z"
       sodipodi:ry="18.665279"
       sodipodi:rx="18.665279"
       sodipodi:cy="414.17743"
       sodipodi:cx="72.773613"
       id="path3755"
       style="color:#000000;fill:#d2c700;fill-opacity:1;stroke:#000000;stroke-width:2;stroke-linecap:square;stroke-linejoin:round;stroke-miterlimit:4;stroke-opacity:1;stroke-dasharray:none;stroke-dashoffset:0;marker:none;visibility:visible;display:inline;overflow:visible;enable-background:accumulate"
       sodipodi:type="arc" />
    <path
       sodipodi:type="arc"
       style="color:#000000;fill:#d2c700;fill-opacity:1;stroke:#000000;stroke-width:2;stroke-linecap:square;stroke-linejoin:round;stroke-miterlimit:4;stroke-opacity:1;stroke-dasharray:none;stroke-dashoffset:0;marker:none;visibility:visible;display:inline;overflow:visible;enable-background:accumulate"
       id="path3779"
       sodipodi:cx="72.773613"
       sodipodi:cy="414.17743"
       sodipodi:rx="18.665279"
       sodipodi:ry="18.665279"
       d="m 91.438892,414.17743 c 0,10.30855 -8.35673,18.66528 -18.665279,18.66528 -10.308549,0 -18.665279,-8.35673 -18.665279,-18.66528 0,-10.30855 8.35673,-18.66528 18.665279,-18.66528 10.308549,0 18.665279,8.35673 18.665279,18.66528 z"
       transform="matrix(-1,0,0,1,363.65802,14.281394)" />
    <path
       inkscape:connector-curvature="0"
       id="path4623"
       d="m 296.28798,314.22243 -69.62134,96.41841"
       style="fill:none;stroke:#000000;stroke-width:2.5;stroke-linecap:butt;stroke-linejoin:miter;stroke-miterlimit:4;stroke-opacity:1;stroke-dasharray:none;marker-start:url(#Arrow2Mstart);marker-mid:none;marker-end:none"
       sodipodi:nodetypes="cc" />
    <path
       sodipodi:type="arc"
       style="color:#000000;fill:#d2c700;fill-opacity:1;stroke:#000000;stroke-width:2;stroke-linecap:square;stroke-linejoin:round;stroke-miterlimit:4;stroke-opacity:1;stroke-dasharray:none;stroke-dashoffset:0;marker:none;visibility:visible;display:inline;overflow:visible;enable-background:accumulate"
       id="path3773"
       sodipodi:cx="72.773613"
       sodipodi:cy="414.17743"
       sodipodi:rx="18.665279"
       sodipodi:ry="18.665279"
       d="m 91.438892,414.17743 c 0,10.30855 -8.35673,18.66528 -18.665279,18.66528 -10.308549,0 -18.665279,-8.35673 -18.665279,-18.66528 0,-10.30855 8.35673,-18.66528 18.665279,-18.66528 10.308549,0 18.665279,8.35673 18.665279,18.66528 z"
       transform="matrix(-1,0,0,1,292.55154,14.281394)" />
    <path
       sodipodi:nodetypes="cc"
       style="fill:none;stroke:#000000;stroke-width:2.5;stroke-linecap:butt;stroke-linejoin:miter;stroke-miterlimit:4;stroke-opacity:1;stroke-dasharray:none;marker-start:url(#Arrow2Mstart);marker-mid:none;marker-end:none"
       d="m 302.21185,317.26589 -10.19767,92.50539"
       id="path4720"
       inkscape:connector-curvature="0" />
    <path
       inkscape:connector-curvature="0"
       id="path4726"
       d="m 319.98346,314.22243 77.73338,94.89668"
       style="fill:none;stroke:#000000;stroke-width:2.5;stroke-linecap:butt;stroke-linejoin:miter;stroke-miterlimit:4;stroke-opacity:1;stroke-dasharray:none;marker-start:url(#Arrow2Mstart);marker-mid:none;marker-end:none"
       sodipodi:nodetypes="cc" />
    <path
       sodipodi:type="arc"
       style="color:#000000;fill:#d2c700;fill-opacity:1;stroke:#000000;stroke-width:2;stroke-linecap:square;stroke-linejoin:round;stroke-miterlimit:4;stroke-opacity:1;stroke-dasharray:none;stroke-dashoffset:0;marker:none;visibility:visible;display:inline;overflow:visible;enable-background:accumulate"
       id="path3767"
       sodipodi:cx="72.773613"
       sodipodi:cy="414.17743"
       sodipodi:rx="18.665279"
       sodipodi:ry="18.665279"
       d="m 91.438892,414.17743 c 0,10.30855 -8.35673,18.66528 -18.665279,18.66528 -10.308549,0 -18.665279,-8.35673 -18.665279,-18.66528 0,-10.30855 8.35673,-18.66528 18.665279,-18.66528 10.308549,0 18.665279,8.35673 18.665279,18.66528 z"
       transform="translate(235.00431,-114.69777)" />
    <text
       xml:space="preserve"
       style="font-size:11px;font-style:normal;font-variant:normal;font-weight:normal;font-stretch:normal;text-align:start;line-height:125%;letter-spacing:0px;word-spacing:0px;writing-mode:lr-tb;text-anchor:start;fill:#000000;fill-opacity:1;stroke:none;font-family:Sans;-inkscape-font-specification:Sans"
       x="17.874264"
       y="83.450371"
       id="text3602"
       sodipodi:linespacing="125%"
       transform="translate(180.98375,276.47279)"><tspan
         sodipodi:role="line"
         id="tspan3604"
         x="17.874264"
         y="83.450371" /></text>
    <g
       id="g6773" />
    <path
       sodipodi:nodetypes="ccccccccccccccccccccccccccccssccccsscsssscsscssccsccsssscc"
       id="path6922"
       d="m 311.52538,295.14409 0.003,-0.0133 0.003,-0.01 0.003,-0.0199 0.007,-0.0166 0.003,-0.0199 0.003,-0.0166 0.007,-0.0133 0.003,-0.0166 0.003,-0.0133 0.003,-0.0133 0,-0.0133 0.003,-0.0133 0.003,-0.0133 0.003,-0.01 0,-0.01 0.003,-0.01 0,-0.01 0.003,-0.01 0,-0.01 0.003,-0.0166 0,-0.0199 0,-0.0166 0,-0.0166 0.003,-0.0166 0,-0.01 0,-0.01 0,-0.01 0,-0.01 c 0,-0.3016 -0.22868,-0.44743 -0.47725,-0.44743 -0.16572,0 -0.43086,0.0994 -0.58,0.348 -0.0332,0.0829 -0.16572,0.58995 -0.22869,0.89155 -0.11931,0.42754 -0.232,0.87497 -0.33143,1.31908 l -0.74571,2.97291 c -0.063,0.24858 -0.77223,1.40195 -1.86263,1.40195 -0.84183,0 -1.02743,-0.72252 -1.02743,-1.33566 0,-0.75897 0.28503,-1.7864 0.84514,-3.23474 0.26515,-0.67943 0.33143,-0.86172 0.33143,-1.19314 0,-0.73909 -0.52697,-1.34892 -1.35554,-1.34892 -1.57097,0 -2.1808,2.3896 -2.1808,2.54206 0,0.16571 0.16571,0.16571 0.20217,0.16571 0.16571,0 0.17897,-0.0365 0.26183,-0.3016 0.44743,-1.5544 1.10366,-2.04491 1.66708,-2.04491 0.13258,0 0.41429,0 0.41429,0.52697 0,0.41429 -0.16571,0.83851 -0.28171,1.15669 -0.65955,1.74994 -0.96115,2.6912 -0.96115,3.47005 0,1.46492 1.044,1.96206 2.01509,1.96206 0.6496,0 1.2064,-0.28171 1.66708,-0.7424 -0.21211,0.85509 -0.40765,1.66709 -1.07051,2.54537 -0.43086,0.5568 -1.05726,1.04069 -1.81623,1.04069 -0.22868,0 -0.9744,-0.053 -1.25611,-0.696 0.26514,0 0.48388,0 0.70925,-0.20217 0.16572,-0.14252 0.33143,-0.36126 0.33143,-0.6728 0,-0.51372 -0.44411,-0.58 -0.60983,-0.58 -0.37782,0 -0.928,0.26514 -0.928,1.07382 0,0.82858 0.73246,1.4384 1.75326,1.4384 1.70354,0 3.40046,-1.508 3.86777,-3.37062 z"
       inkscape:connector-curvature="0"
       style="font-style:normal;font-variant:normal;font-weight:normal;font-stretch:normal;letter-spacing:normal;word-spacing:normal;text-anchor:start;fill:#000000;stroke:#000000;stroke-width:0.5;stroke-linecap:butt;stroke-linejoin:miter;stroke-miterlimit:10.43299961;stroke-opacity:1;stroke-dasharray:none;stroke-dashoffset:0" />
    <g
       transform="translate(120.68232,343.53508)"
       style="stroke-width:0.5;stroke-miterlimit:10.43299961;stroke-dasharray:none"
       id="g8219">
      <path
         id="path8100"
         d="m 100.60183,47.275886 0.007,-0.03314 0.007,-0.03646 0.01,-0.03977 0.01,-0.03646 0.01,-0.03977 0.01,-0.03977 0.0199,-0.08286 0.0199,-0.08286 0.0199,-0.08286 0.0199,-0.07954 0.0199,-0.08286 0.01,-0.03646 0.01,-0.03977 0.01,-0.03646 0.007,-0.03646 0.01,-0.03314 0.007,-0.03314 0.007,-0.03314 0.007,-0.02983 0.007,-0.02651 0.007,-0.02651 0.003,-0.0232 0.003,-0.01989 0.003,-0.01989 0.003,-0.01657 0,-0.01326 0.003,-0.0099 c 0,-0.3016 -0.23531,-0.447429 -0.48389,-0.447429 -0.19554,0 -0.490511,0.129258 -0.606511,0.460686 -0.04971,0.116 -0.828571,3.267886 -0.941257,3.698743 -0.119314,0.497143 -0.149143,0.792114 -0.149143,1.093714 0,0.178972 0,0.212115 0.01326,0.294972 -0.377828,0.874971 -0.874971,1.385371 -1.514628,1.385371 -1.3224,0 -1.3224,-1.219657 -1.3224,-1.501371 0,-0.526972 0.08286,-1.173257 0.861714,-3.204915 0.178972,-0.490514 0.2784,-0.725828 0.2784,-1.057257 0,-0.739085 -0.543543,-1.348914 -1.355543,-1.348914 -1.570971,0 -2.1808,2.3896 -2.1808,2.542057 0,0.165714 0.165715,0.165714 0.202172,0.165714 0.165714,0 0.178971,-0.03646 0.261828,-0.3016 0.447429,-1.5312 1.087086,-2.044914 1.667086,-2.044914 0.145829,0 0.414286,0.01657 0.414286,0.543543 0,0.414286 -0.1856,0.874971 -0.298286,1.153371 -0.725829,1.9488 -0.921371,2.711086 -0.921371,3.337486 0,1.501372 1.103657,2.081372 2.339885,2.081372 0.285029,0 1.057257,0 1.720115,-1.156686 0.427542,1.057257 1.567653,1.156686 2.064793,1.156686 1.23955,0 1.96206,-1.040686 2.39292,-2.031658 0.56011,-1.289257 1.08708,-3.499885 1.08708,-4.292 0,-0.911428 -0.44411,-1.153371 -0.72582,-1.153371 -0.41429,0 -0.82195,0.427543 -0.82195,0.792114 0,0.212115 0.0994,0.308229 0.24195,0.444115 0.18228,0.182285 0.59657,0.609828 0.59657,1.401942 0,0.560115 -0.47726,2.1808 -0.9048,3.019315 -0.43086,0.874971 -1.01086,1.454971 -1.81955,1.454971 -0.77554,0 -1.222965,-0.497143 -1.222965,-1.431771 0,-0.467315 0.116,-0.981029 0.182286,-1.2064 z"
         inkscape:connector-curvature="0"
         style="font-style:normal;font-variant:normal;font-weight:normal;font-stretch:normal;letter-spacing:normal;word-spacing:normal;text-anchor:start;fill:#000000;stroke:#000000;stroke-width:0.5;stroke-linecap:butt;stroke-linejoin:miter;stroke-miterlimit:10.43299961;stroke-opacity:1;stroke-dasharray:none;stroke-dashoffset:0" />
      <path
         id="path8102"
         d="m 110.74354,51.657372 0,-0.235314 -0.007,-0.225372 -0.01,-0.218743 -0.0133,-0.212114 -0.0199,-0.205486 -0.0232,-0.198857 -0.0298,-0.188914 -0.0365,-0.1856 -0.0431,-0.182286 -0.0497,-0.175657 -0.0563,-0.169028 -0.063,-0.165715 -0.0696,-0.1624 -0.0795,-0.159085 -0.0862,-0.155772 -0.0464,-0.07623 -0.0497,-0.07623 c -0.35794,-0.5336 -1.07052,-0.994286 -1.99852,-0.994286 v 0.3248 c 0.6264,0 1.22629,0.377829 1.43509,1.050629 0.1856,0.623086 0.19554,1.454971 0.19554,2.462514 0,0.851772 0,1.706857 -0.14914,2.432686 -0.232,1.050628 -1.01417,1.305828 -1.48149,1.305828 h 0 c -0.52697,0 -1.23291,-0.311542 -1.46491,-1.259428 -0.1624,-0.679429 -0.1624,-1.627314 -0.1624,-2.479086 0,-0.845143 0,-1.726743 0.17234,-2.356457 0.24195,-0.911429 0.98435,-1.156686 1.45497,-1.156686 v -0.3248 c -2.67794,0 -2.67794,3.151886 -2.67794,3.987086 0,0.828571 0,3.914171 2.67794,3.914171 2.68126,0 2.68126,-3.0856 2.68126,-3.914171 z"
         inkscape:connector-curvature="0"
         style="font-style:normal;font-variant:normal;font-weight:normal;font-stretch:normal;letter-spacing:normal;word-spacing:normal;text-anchor:start;fill:#000000;stroke:#000000;stroke-width:0.5;stroke-linecap:butt;stroke-linejoin:miter;stroke-miterlimit:10.43299961;stroke-opacity:1;stroke-dasharray:none;stroke-dashoffset:0" />
    </g>
    <g
       transform="translate(154.43114,343.65065)"
       style="stroke-width:0.5;stroke-miterlimit:10.43299961;stroke-dasharray:none"
       id="g8223">
      <path
         id="path8104"
         d="m 119.8512,47.275886 0.007,-0.03314 0.01,-0.03646 0.007,-0.03977 0.01,-0.03646 0.01,-0.03977 0.01,-0.03977 0.0199,-0.08286 0.0199,-0.08286 0.0199,-0.08286 0.0232,-0.07954 0.0199,-0.08286 0.007,-0.03646 0.01,-0.03977 0.01,-0.03646 0.01,-0.03646 0.007,-0.03314 0.007,-0.03314 0.01,-0.03314 0.003,-0.02983 0.007,-0.02651 0.007,-0.02651 0.003,-0.0232 0.007,-0.01989 0,-0.01989 0.003,-0.01657 0.003,-0.01326 0,-0.0099 c 0,-0.3016 -0.23531,-0.447429 -0.48389,-0.447429 -0.19554,0 -0.49051,0.129258 -0.6032,0.460686 -0.053,0.116 -0.82857,3.267886 -0.94457,3.698743 -0.11931,0.497143 -0.14914,0.792114 -0.14914,1.093714 0,0.178972 0,0.212115 0.0166,0.294972 -0.37783,0.874971 -0.87497,1.385371 -1.51794,1.385371 -1.3224,0 -1.3224,-1.219657 -1.3224,-1.501371 0,-0.526972 0.0829,-1.173257 0.86171,-3.204915 0.17897,-0.490514 0.2784,-0.725828 0.2784,-1.057257 0,-0.739085 -0.54354,-1.348914 -1.35554,-1.348914 -1.57097,0 -2.1808,2.3896 -2.1808,2.542057 0,0.165714 0.16571,0.165714 0.20217,0.165714 0.16572,0 0.18229,-0.03646 0.26514,-0.3016 0.44412,-1.5312 1.08709,-2.044914 1.66709,-2.044914 0.14251,0 0.41429,0.01657 0.41429,0.543543 0,0.414286 -0.18892,0.874971 -0.3016,1.153371 -0.72583,1.9488 -0.92138,2.711086 -0.92138,3.337486 0,1.501372 1.10366,2.081372 2.33989,2.081372 0.28503,0 1.05726,0 1.72011,-1.156686 0.43086,1.057257 1.56766,1.156686 2.0648,1.156686 1.23955,0 1.96538,-1.040686 2.39292,-2.031658 0.56011,-1.289257 1.08708,-3.499885 1.08708,-4.292 0,-0.911428 -0.44411,-1.153371 -0.72251,-1.153371 -0.41429,0 -0.82526,0.427543 -0.82526,0.792114 0,0.212115 0.0994,0.308229 0.24526,0.444115 0.17897,0.182285 0.59326,0.609828 0.59326,1.401942 0,0.560115 -0.47395,2.1808 -0.9048,3.019315 -0.43086,0.874971 -1.01086,1.454971 -1.81955,1.454971 -0.77554,0 -1.21965,-0.497143 -1.21965,-1.431771 0,-0.467315 0.11268,-0.981029 0.17897,-1.2064 z"
         inkscape:connector-curvature="0"
         style="font-style:normal;font-variant:normal;font-weight:normal;font-stretch:normal;letter-spacing:normal;word-spacing:normal;text-anchor:start;fill:#000000;stroke:#000000;stroke-width:0.5;stroke-linecap:butt;stroke-linejoin:miter;stroke-miterlimit:10.43299961;stroke-opacity:1;stroke-dasharray:none;stroke-dashoffset:0" />
      <path
         id="path8106"
         d="m 127.9016,47.995086 0,-0.01326 0,-0.01326 0,-0.01657 0,-0.01326 0,-0.0099 0,-0.01326 0,-0.01326 0,-0.0099 -0.003,-0.01326 0,-0.0099 0,-0.0099 0,-0.0099 0,-0.0099 -0.003,-0.0099 0,-0.0099 -0.003,-0.0066 0,-0.0099 0,-0.0066 -0.003,-0.0099 0,-0.0066 -0.007,-0.01326 -0.003,-0.01326 -0.007,-0.0099 -0.007,-0.0099 -0.007,-0.0099 -0.007,-0.0099 -0.01,-0.0066 -0.01,-0.0066 -0.0133,-0.0066 -0.01,-0.0033 -0.0133,-0.0033 -0.0166,-0.0066 -0.007,0 -0.01,0 -0.007,-0.0033 -0.01,0 -0.01,-0.0033 -0.007,0 -0.01,0 -0.01,0 -0.0133,0 -0.01,-0.0033 -0.01,0 -0.0133,0 -0.0133,0 -0.01,0 -0.0133,0 -0.0132,0 -0.0133,0 -0.0166,0 -0.0133,0 -0.0166,0 c -0.73909,0.729143 -1.7864,0.739086 -2.26366,0.739086 v 0.414286 c 0.28172,0 1.044,0 1.67372,-0.321486 v 5.889486 c 0,0.384457 0,0.5336 -1.15338,0.5336 h -0.43748 v 0.414285 c 0.2088,-0.0099 1.62731,-0.0464 2.05817,-0.0464 0.35794,0 1.81291,0.03646 2.0648,0.0464 v -0.414285 h -0.43749 c -1.15668,0 -1.15668,-0.149143 -1.15668,-0.5336 z"
         inkscape:connector-curvature="0"
         style="font-style:normal;font-variant:normal;font-weight:normal;font-stretch:normal;letter-spacing:normal;word-spacing:normal;text-anchor:start;fill:#000000;stroke:#000000;stroke-width:0.5;stroke-linecap:butt;stroke-linejoin:miter;stroke-miterlimit:10.43299961;stroke-opacity:1;stroke-dasharray:none;stroke-dashoffset:0" />
    </g>
    <g
       id="g8872"
       transform="translate(-2.0239259e-6,0)">
      <path
         style="font-style:normal;font-variant:normal;font-weight:normal;font-stretch:normal;letter-spacing:normal;word-spacing:normal;text-anchor:start;fill:#000000;stroke:#000000;stroke-width:0.5;stroke-linecap:butt;stroke-linejoin:miter;stroke-miterlimit:10.43299961;stroke-opacity:1;stroke-dasharray:none;stroke-dashoffset:0"
         inkscape:connector-curvature="0"
         d="m 394.54116,425.82906 0.01,-0.0431 0.0133,-0.0497 0.0133,-0.053 0.0166,-0.0597 0.0166,-0.063 0.0199,-0.0696 0.0199,-0.0729 0.0265,-0.0729 0.0265,-0.0762 0.0265,-0.0795 0.0331,-0.0829 0.0331,-0.0795 0.0365,-0.0829 0.0398,-0.0829 0.0431,-0.0829 0.0464,-0.0829 0.0497,-0.0795 0.0497,-0.0796 0.0563,-0.0762 0.0597,-0.0729 0.0597,-0.0729 0.0663,-0.0663 0.0696,-0.063 0.0729,-0.0597 0.0795,-0.053 0.0795,-0.0464 0.0431,-0.0232 0.0431,-0.0199 0.0431,-0.0166 0.0431,-0.0166 0.0464,-0.0166 0.0497,-0.0133 0.0464,-0.01 0.0497,-0.01 0.0497,-0.007 0.053,-0.007 0.053,-0.003 0.053,0 c 0.0829,0 0.47725,0 0.82194,0.21211 -0.46069,0.0829 -0.79211,0.49715 -0.79211,0.89155 0,0.26182 0.18228,0.58 0.6264,0.58 0.36457,0 0.89154,-0.29498 0.89154,-0.95783 0,-0.86172 -0.9744,-1.08709 -1.5312,-1.08709 -0.95783,0 -1.53783,0.87497 -1.73669,1.2528 -0.41428,-1.08708 -1.30583,-1.2528 -1.77977,-1.2528 -1.72011,0 -2.66137,2.12777 -2.66137,2.54206 0,0.16571 0.16571,0.16571 0.20217,0.16571 0.12926,0 0.17897,-0.0365 0.21212,-0.18228 0.5568,-1.74995 1.65051,-2.16423 2.21062,-2.16423 0.31486,0 0.89155,0.14583 0.89155,1.10366 0,0.5104 -0.28172,1.62068 -0.89155,3.93074 -0.26514,1.02411 -0.83851,1.7168 -1.57097,1.7168 -0.0961,0 -0.47394,0 -0.82194,-0.21543 0.41429,-0.0795 0.77554,-0.42423 0.77554,-0.89154 0,-0.44412 -0.36125,-0.57337 -0.60983,-0.57337 -0.49714,0 -0.91142,0.42754 -0.91142,0.95782 0,0.75566 0.82857,1.08709 1.5544,1.08709 1.0904,0 1.68034,-1.15669 1.73337,-1.2528 0.19554,0.60983 0.79211,1.2528 1.78308,1.2528 1.70355,0 2.6448,-2.12777 2.6448,-2.54206 0,-0.16571 -0.14914,-0.16571 -0.20217,-0.16571 -0.14583,0 -0.18228,0.0663 -0.21211,0.17897 -0.54355,1.76651 -1.66709,2.16423 -2.19737,2.16423 -0.64629,0 -0.90812,-0.52697 -0.90812,-1.0904 0,-0.36457 0.0961,-0.72583 0.28172,-1.45166 z"
         id="path8318" />
      <path
         style="font-style:normal;font-variant:normal;font-weight:normal;font-stretch:normal;letter-spacing:normal;word-spacing:normal;text-anchor:start;fill:#000000;stroke:#000000;stroke-width:0.5;stroke-linecap:butt;stroke-linejoin:miter;stroke-miterlimit:10.43299961;stroke-opacity:1;stroke-dasharray:none;stroke-dashoffset:0"
         inkscape:connector-curvature="0"
         d="m 399.86059,432.55706 -0.003,0.0133 -0.007,0.0166 -0.003,0.0133 -0.007,0.0166 -0.003,0.0166 -0.007,0.0199 -0.003,0.0166 -0.003,0.0166 -0.01,0.0365 -0.01,0.0365 -0.01,0.0398 -0.01,0.0331 -0.003,0.0199 -0.003,0.0166 -0.003,0.0166 -0.003,0.0166 -0.003,0.0166 -0.003,0.0133 -0.003,0.0166 -0.003,0.0133 -0.003,0.01 -0.003,0.0133 0,0.01 -0.003,0.01 0,0.007 0,0.007 0,0.003 0,0.003 0,0.003 -0.003,0 c 0,0.2552 0.2088,0.36789 0.3944,0.36789 0.2088,0 0.38777,-0.14914 0.45074,-0.25189 0.0563,-0.10605 0.14914,-0.47394 0.2088,-0.71588 0.0563,-0.21875 0.17897,-0.75235 0.25189,-1.04069 0.0696,-0.2552 0.1392,-0.50708 0.19885,-0.77223 0.12263,-0.47725 0.14915,-0.56343 0.48058,-1.04068 0.3248,-0.46069 0.86834,-1.06057 1.73337,-1.06057 0.66948,0 0.67943,0.58994 0.67943,0.80868 0,0.69269 -0.49052,1.972 -0.67943,2.4592 -0.12926,0.3248 -0.17566,0.42754 -0.17566,0.6264 0,0.60983 0.51371,0.98766 1.09703,0.98766 1.15668,0 1.66377,-1.58754 1.66377,-1.76652 0,-0.14914 -0.14914,-0.14914 -0.18229,-0.14914 -0.16571,0 -0.17565,0.0663 -0.22205,0.19554 -0.26515,0.92469 -0.76229,1.39863 -1.22297,1.39863 -0.24195,0 -0.28835,-0.15908 -0.28835,-0.40434 0,-0.26183 0.0564,-0.41429 0.26515,-0.93463 0.1392,-0.35794 0.61645,-1.58091 0.61645,-2.2272 0,-1.12354 -0.89154,-1.31577 -1.50468,-1.31577 -0.95783,0 -1.60412,0.58331 -1.95212,1.04731 -0.0829,-0.79542 -0.75897,-1.04731 -1.23623,-1.04731 -0.49714,0 -0.76228,0.35794 -0.91142,0.61977 -0.2552,0.42754 -0.41429,1.0904 -0.41429,1.14674 0,0.14915 0.15909,0.14915 0.19554,0.14915 0.1624,0 0.17235,-0.0365 0.2552,-0.348 0.16903,-0.68275 0.3944,-1.24617 0.84515,-1.24617 0.29828,0 0.37782,0.25188 0.37782,0.56342 0,0.22206 -0.10605,0.64629 -0.18891,0.95783 -0.0762,0.31486 -0.18891,0.7888 -0.25189,1.04069 z"
         id="path8320" />
    </g>
    <path
       sodipodi:nodetypes="ccccccccccccccccccccccccccccccccssscc"
       id="path8322"
       d="m 312.90617,394.11098 0,-0.0431 -0.003,-0.0464 -0.007,-0.0431 -0.007,-0.0431 -0.01,-0.0398 -0.0133,-0.0431 -0.0132,-0.0398 -0.0166,-0.0398 -0.0166,-0.0398 -0.0199,-0.0365 -0.0199,-0.0365 -0.0232,-0.0365 -0.0232,-0.0331 -0.0265,-0.0331 -0.0265,-0.0331 -0.0298,-0.0298 -0.0298,-0.0298 -0.0331,-0.0265 -0.0331,-0.0265 -0.0331,-0.0232 -0.0365,-0.0232 -0.0365,-0.0232 -0.0365,-0.0199 -0.0398,-0.0166 -0.0398,-0.0166 -0.0398,-0.0133 -0.0431,-0.0132 -0.0431,-0.01 -0.0431,-0.007 -0.0431,-0.007 -0.0431,-0.003 -0.0464,0 c -0.47725,0 -0.87497,0.39772 -0.87497,0.87497 0,0.47726 0.39772,0.87497 0.87497,0.87497 0.48389,0 0.87497,-0.39771 0.87497,-0.87497 z"
       inkscape:connector-curvature="0"
       style="font-style:normal;font-variant:normal;font-weight:normal;font-stretch:normal;letter-spacing:normal;word-spacing:normal;text-anchor:start;fill:#000000;stroke:#000000;stroke-width:0.5;stroke-linecap:butt;stroke-linejoin:miter;stroke-miterlimit:10.43299961;stroke-opacity:1;stroke-dasharray:none;stroke-dashoffset:0" />
    <path
       sodipodi:nodetypes="ccccccccccccccccccccccccccccccccssscc"
       id="path8324"
       d="m 326.22412,394.11098 -0.003,-0.0431 -0.003,-0.0464 -0.003,-0.0431 -0.01,-0.0431 -0.01,-0.0398 -0.01,-0.0431 -0.0133,-0.0398 -0.0166,-0.0398 -0.0166,-0.0398 -0.0199,-0.0365 -0.0232,-0.0365 -0.0199,-0.0365 -0.0265,-0.0331 -0.0265,-0.0331 -0.0265,-0.0331 -0.0298,-0.0298 -0.0298,-0.0298 -0.0331,-0.0265 -0.0331,-0.0265 -0.0331,-0.0232 -0.0365,-0.0232 -0.0365,-0.0232 -0.0365,-0.0199 -0.0398,-0.0166 -0.0398,-0.0166 -0.0398,-0.0133 -0.0398,-0.0132 -0.0431,-0.01 -0.0431,-0.007 -0.0431,-0.007 -0.0464,-0.003 -0.0431,0 c -0.47726,0 -0.87498,0.39772 -0.87498,0.87497 0,0.47726 0.39772,0.87497 0.87498,0.87497 0.48057,0 0.87497,-0.39771 0.87497,-0.87497 z"
       inkscape:connector-curvature="0"
       style="font-style:normal;font-variant:normal;font-weight:normal;font-stretch:normal;letter-spacing:normal;word-spacing:normal;text-anchor:start;fill:#000000;stroke:#000000;stroke-width:0.5;stroke-linecap:butt;stroke-linejoin:miter;stroke-miterlimit:10.43299961;stroke-opacity:1;stroke-dasharray:none;stroke-dashoffset:0" />
    <path
       sodipodi:nodetypes="ccccccccccccccccccccccccccccccccssscc"
       id="path8326"
       d="m 337.54206,394.11098 -0.003,-0.0431 -0.003,-0.0464 -0.003,-0.0431 -0.01,-0.0431 -0.01,-0.0398 -0.01,-0.0431 -0.0133,-0.0398 -0.0166,-0.0398 -0.0199,-0.0398 -0.0166,-0.0365 -0.0232,-0.0365 -0.0232,-0.0365 -0.0232,-0.0331 -0.0265,-0.0331 -0.0265,-0.0331 -0.0298,-0.0298 -0.0298,-0.0298 -0.0331,-0.0265 -0.0331,-0.0265 -0.0331,-0.0232 -0.0365,-0.0232 -0.0365,-0.0232 -0.0365,-0.0199 -0.0398,-0.0166 -0.0398,-0.0166 -0.0398,-0.0133 -0.0431,-0.0132 -0.0398,-0.01 -0.0431,-0.007 -0.0464,-0.007 -0.0431,-0.003 -0.0431,0 c -0.47726,0 -0.87829,0.39772 -0.87829,0.87497 0,0.47726 0.40103,0.87497 0.87829,0.87497 0.48057,0 0.87497,-0.39771 0.87497,-0.87497 z"
       inkscape:connector-curvature="0"
       style="font-style:normal;font-variant:normal;font-weight:normal;font-stretch:normal;letter-spacing:normal;word-spacing:normal;text-anchor:start;fill:#000000;stroke:#000000;stroke-width:0.5;stroke-linecap:butt;stroke-linejoin:miter;stroke-miterlimit:10.43299961;stroke-opacity:1;stroke-dasharray:none;stroke-dashoffset:0" />
    <path
       sodipodi:nodetypes="ccccccccccccccccccccccccccccccccssscc"
       style="font-style:normal;font-variant:normal;font-weight:normal;font-stretch:normal;letter-spacing:normal;word-spacing:normal;text-anchor:start;fill:#000000;stroke:#000000;stroke-width:0.5;stroke-linecap:butt;stroke-linejoin:miter;stroke-miterlimit:10.43299961;stroke-opacity:1;stroke-dasharray:none;stroke-dashoffset:0"
       inkscape:connector-curvature="0"
       d="m 291.75969,431.32771 0,-0.0431 -0.003,-0.0464 -0.007,-0.0431 -0.007,-0.0431 -0.01,-0.0398 -0.0133,-0.0431 -0.0132,-0.0398 -0.0166,-0.0398 -0.0166,-0.0398 -0.0199,-0.0365 -0.0199,-0.0365 -0.0232,-0.0365 -0.0232,-0.0331 -0.0265,-0.0331 -0.0265,-0.0331 -0.0298,-0.0298 -0.0298,-0.0298 -0.0331,-0.0265 -0.0331,-0.0265 -0.0331,-0.0232 -0.0365,-0.0232 -0.0365,-0.0232 -0.0365,-0.0199 -0.0398,-0.0166 -0.0398,-0.0166 -0.0398,-0.0133 -0.0431,-0.0132 -0.0431,-0.01 -0.0431,-0.007 -0.0431,-0.007 -0.0431,-0.003 -0.0464,0 c -0.47725,0 -0.87497,0.39772 -0.87497,0.87497 0,0.47726 0.39772,0.87497 0.87497,0.87497 0.48389,0 0.87497,-0.39771 0.87497,-0.87497 z"
       id="path8447" />
    <path
       sodipodi:nodetypes="ccccccccccccccccccccccccccccccccssscc"
       style="font-style:normal;font-variant:normal;font-weight:normal;font-stretch:normal;letter-spacing:normal;word-spacing:normal;text-anchor:start;fill:#000000;stroke:#000000;stroke-width:0.5;stroke-linecap:butt;stroke-linejoin:miter;stroke-miterlimit:10.43299961;stroke-opacity:1;stroke-dasharray:none;stroke-dashoffset:0"
       inkscape:connector-curvature="0"
       d="m 336.22412,431.32771 -0.003,-0.0431 -0.003,-0.0464 -0.003,-0.0431 -0.01,-0.0431 -0.01,-0.0398 -0.01,-0.0431 -0.0133,-0.0398 -0.0166,-0.0398 -0.0166,-0.0398 -0.0199,-0.0365 -0.0232,-0.0365 -0.0199,-0.0365 -0.0265,-0.0331 -0.0265,-0.0331 -0.0265,-0.0331 -0.0298,-0.0298 -0.0298,-0.0298 -0.0331,-0.0265 -0.0331,-0.0265 -0.0331,-0.0232 -0.0365,-0.0232 -0.0365,-0.0232 -0.0365,-0.0199 -0.0398,-0.0166 -0.0398,-0.0166 -0.0398,-0.0133 -0.0398,-0.0132 -0.0431,-0.01 -0.0431,-0.007 -0.0431,-0.007 -0.0464,-0.003 -0.0431,0 c -0.47726,0 -0.87498,0.39772 -0.87498,0.87497 0,0.47726 0.39772,0.87497 0.87498,0.87497 0.48057,0 0.87497,-0.39771 0.87497,-0.87497 z"
       id="path8449" />
    <path
       sodipodi:nodetypes="ccccccccccccccccccccccccccccccccssscc"
       style="font-style:normal;font-variant:normal;font-weight:normal;font-stretch:normal;letter-spacing:normal;word-spacing:normal;text-anchor:start;fill:#000000;stroke:#000000;stroke-width:0.5;stroke-linecap:butt;stroke-linejoin:miter;stroke-miterlimit:10.43299961;stroke-opacity:1;stroke-dasharray:none;stroke-dashoffset:0"
       inkscape:connector-curvature="0"
       d="m 355.54206,431.32771 -0.003,-0.0431 -0.003,-0.0464 -0.003,-0.0431 -0.01,-0.0431 -0.01,-0.0398 -0.01,-0.0431 -0.0133,-0.0398 -0.0166,-0.0398 -0.0199,-0.0398 -0.0166,-0.0365 -0.0232,-0.0365 -0.0232,-0.0365 -0.0232,-0.0331 -0.0265,-0.0331 -0.0265,-0.0331 -0.0298,-0.0298 -0.0298,-0.0298 -0.0331,-0.0265 -0.0331,-0.0265 -0.0331,-0.0232 -0.0365,-0.0232 -0.0365,-0.0232 -0.0365,-0.0199 -0.0398,-0.0166 -0.0398,-0.0166 -0.0398,-0.0133 -0.0431,-0.0132 -0.0398,-0.01 -0.0431,-0.007 -0.0464,-0.007 -0.0431,-0.003 -0.0431,0 c -0.47726,0 -0.87829,0.39772 -0.87829,0.87497 0,0.47726 0.40103,0.87497 0.87829,0.87497 0.48057,0 0.87497,-0.39771 0.87497,-0.87497 z"
       id="path8451" />
    <g
       transform="translate(-190,-72)"
       id="g8453">
      <path
         id="path8455"
         d="m 498.90617,425.32771 0,-0.0431 -0.003,-0.0464 -0.007,-0.0431 -0.007,-0.0431 -0.01,-0.0398 -0.0133,-0.0431 -0.0132,-0.0398 -0.0166,-0.0398 -0.0166,-0.0398 -0.0199,-0.0365 -0.0199,-0.0365 -0.0232,-0.0365 -0.0232,-0.0331 -0.0265,-0.0331 -0.0265,-0.0331 -0.0298,-0.0298 -0.0298,-0.0298 -0.0331,-0.0265 -0.0331,-0.0265 -0.0331,-0.0232 -0.0365,-0.0232 -0.0365,-0.0232 -0.0365,-0.0199 -0.0398,-0.0166 -0.0398,-0.0166 -0.0398,-0.0133 -0.0431,-0.0132 -0.0431,-0.01 -0.0431,-0.007 -0.0431,-0.007 -0.0431,-0.003 -0.0464,0 c -0.47725,0 -0.87497,0.39772 -0.87497,0.87497 0,0.47726 0.39772,0.87497 0.87497,0.87497 0.48389,0 0.87497,-0.39771 0.87497,-0.87497 z"
         inkscape:connector-curvature="0"
         style="font-style:normal;font-variant:normal;font-weight:normal;font-stretch:normal;letter-spacing:normal;word-spacing:normal;text-anchor:start;fill:#000000;stroke:#000000;stroke-width:0.5;stroke-linecap:butt;stroke-linejoin:miter;stroke-miterlimit:10.43299961;stroke-opacity:1;stroke-dasharray:none;stroke-dashoffset:0" />
      <path
         id="path8457"
         d="m 506.22412,425.32771 -0.003,-0.0431 -0.003,-0.0464 -0.003,-0.0431 -0.01,-0.0431 -0.01,-0.0398 -0.01,-0.0431 -0.0133,-0.0398 -0.0166,-0.0398 -0.0166,-0.0398 -0.0199,-0.0365 -0.0232,-0.0365 -0.0199,-0.0365 -0.0265,-0.0331 -0.0265,-0.0331 -0.0265,-0.0331 -0.0298,-0.0298 -0.0298,-0.0298 -0.0331,-0.0265 -0.0331,-0.0265 -0.0331,-0.0232 -0.0365,-0.0232 -0.0365,-0.0232 -0.0365,-0.0199 -0.0398,-0.0166 -0.0398,-0.0166 -0.0398,-0.0133 -0.0398,-0.0132 -0.0431,-0.01 -0.0431,-0.007 -0.0431,-0.007 -0.0464,-0.003 -0.0431,0 c -0.47726,0 -0.87498,0.39772 -0.87498,0.87497 0,0.47726 0.39772,0.87497 0.87498,0.87497 0.48057,0 0.87497,-0.39771 0.87497,-0.87497 z"
         inkscape:connector-curvature="0"
         style="font-style:normal;font-variant:normal;font-weight:normal;font-stretch:normal;letter-spacing:normal;word-spacing:normal;text-anchor:start;fill:#000000;stroke:#000000;stroke-width:0.5;stroke-linecap:butt;stroke-linejoin:miter;stroke-miterlimit:10.43299961;stroke-opacity:1;stroke-dasharray:none;stroke-dashoffset:0" />
      <path
         id="path8459"
         d="m 513.54206,425.32771 -0.003,-0.0431 -0.003,-0.0464 -0.003,-0.0431 -0.01,-0.0431 -0.01,-0.0398 -0.01,-0.0431 -0.0133,-0.0398 -0.0166,-0.0398 -0.0199,-0.0398 -0.0166,-0.0365 -0.0232,-0.0365 -0.0232,-0.0365 -0.0232,-0.0331 -0.0265,-0.0331 -0.0265,-0.0331 -0.0298,-0.0298 -0.0298,-0.0298 -0.0331,-0.0265 -0.0331,-0.0265 -0.0331,-0.0232 -0.0365,-0.0232 -0.0365,-0.0232 -0.0365,-0.0199 -0.0398,-0.0166 -0.0398,-0.0166 -0.0398,-0.0133 -0.0431,-0.0132 -0.0398,-0.01 -0.0431,-0.007 -0.0464,-0.007 -0.0431,-0.003 -0.0431,0 c -0.47726,0 -0.87829,0.39772 -0.87829,0.87497 0,0.47726 0.40103,0.87497 0.87829,0.87497 0.48057,0 0.87497,-0.39771 0.87497,-0.87497 z"
         inkscape:connector-curvature="0"
         style="font-style:normal;font-variant:normal;font-weight:normal;font-stretch:normal;letter-spacing:normal;word-spacing:normal;text-anchor:start;fill:#000000;stroke:#000000;stroke-width:0.5;stroke-linecap:butt;stroke-linejoin:miter;stroke-miterlimit:10.43299961;stroke-opacity:1;stroke-dasharray:none;stroke-dashoffset:0" />
    </g>
    <g
       transform="translate(122.61136,381.08517)"
       style="stroke-width:0.5;stroke-miterlimit:10.43299961;stroke-dasharray:none"
       id="g8554">
      <g
         style="font-style:normal;font-variant:normal;font-weight:normal;font-stretch:normal;letter-spacing:normal;word-spacing:normal;text-anchor:start;fill:none;stroke:#000000;stroke-width:1.50862074;stroke-linecap:butt;stroke-linejoin:miter;stroke-miterlimit:10.43299961;stroke-opacity:1;stroke-dasharray:none;stroke-dashoffset:0"
         id="content"
         transform="matrix(0.33142857,0,0,-0.33142857,-58,187.5)"
         xml:space="preserve"
         stroke-miterlimit="10.433"
         font-style="normal"
         font-variant="normal"
         font-weight="normal"
         font-stretch="normal"
         font-size-adjust="none"
         letter-spacing="normal"
         word-spacing="normal"><path
           inkscape:connector-curvature="0"
           style="fill:#000000;stroke-width:1.50862074;stroke-miterlimit:10.43299961;stroke-dasharray:none"
           d="m 470.16,438.09 0,0.05 0,0.06 0,0.05 0,0.05 0,0.05 0,0.05 0,0.04 0,0.05 0,0.04 0,0.04 -0.01,0.04 0,0.04 0,0.04 0,0.03 0,0.04 -0.01,0.03 -0.01,0.07 0,0.06 -0.02,0.05 -0.01,0.05 -0.02,0.05 -0.02,0.04 -0.02,0.04 -0.02,0.03 -0.03,0.03 -0.03,0.03 -0.04,0.03 -0.04,0.02 -0.04,0.02 -0.03,0.01 -0.02,0.01 -0.03,0 -0.02,0.01 -0.03,0.01 -0.03,0 -0.03,0.01 -0.03,0 -0.04,0.01 -0.03,0 -0.04,0 -0.03,0.01 -0.04,0 -0.04,0 -0.05,0 -0.04,0 -0.04,0 -0.05,0.01 -0.05,0 -0.05,0 -0.05,0 -0.05,0 c -3.09,-3.19 -7.47,-3.19 -9.06,-3.19 v -1.55 c 1,0 3.93,0 6.51,1.3 v -25.81 c 0,-1.8 -0.14,-2.39 -4.62,-2.39 h -1.6 v -1.55 c 1.75,0.16 6.08,0.16 8.07,0.16 2,0 6.32,0 8.07,-0.16 v 1.55 h -1.59 c -4.48,0 -4.64,0.54 -4.64,2.39 z"
           id="path8557" /></g>    </g>
    <g
       id="g8858"
       transform="translate(219.56454,342.96999)">
      <path
         inkscape:connector-curvature="0"
         style="font-style:normal;font-variant:normal;font-weight:normal;font-stretch:normal;letter-spacing:normal;word-spacing:normal;text-anchor:start;fill:#000000;stroke:#000000;stroke-width:0.5;stroke-linecap:butt;stroke-linejoin:miter;stroke-miterlimit:4;stroke-opacity:1;stroke-dasharray:none;stroke-dashoffset:0"
         d="m 133.61211,47.275886 0.007,-0.03314 0.01,-0.03646 0.007,-0.03977 0.01,-0.03646 0.01,-0.03977 0.01,-0.03977 0.0199,-0.08286 0.0199,-0.08286 0.0199,-0.08286 0.0232,-0.07954 0.0199,-0.08286 0.007,-0.03646 0.01,-0.03977 0.01,-0.03646 0.01,-0.03646 0.007,-0.03314 0.007,-0.03314 0.01,-0.03314 0.003,-0.02983 0.007,-0.02651 0.007,-0.02651 0.003,-0.0232 0.007,-0.01989 0,-0.01989 0.003,-0.01657 0.003,-0.01326 0,-0.0099 c 0,-0.3016 -0.23531,-0.447429 -0.48388,-0.447429 -0.19554,0 -0.49052,0.129258 -0.60652,0.460686 -0.0497,0.116 -0.82857,3.267886 -0.94125,3.698743 -0.11932,0.497143 -0.14915,0.792114 -0.14915,1.093714 0,0.178972 0,0.212115 0.0133,0.294972 -0.37451,0.874971 -0.87166,1.385371 -1.51463,1.385371 -1.3224,0 -1.3224,-1.219657 -1.3224,-1.501371 0,-0.526972 0.0829,-1.173257 0.86172,-3.204915 0.17897,-0.490514 0.2784,-0.725828 0.2784,-1.057257 0,-0.739085 -0.54355,-1.348914 -1.35555,-1.348914 -1.57097,0 -2.1808,2.3896 -2.1808,2.542057 0,0.165714 0.16572,0.165714 0.20218,0.165714 0.16571,0 0.18228,-0.03646 0.26514,-0.3016 0.44411,-1.5312 1.08708,-2.044914 1.66708,-2.044914 0.14252,0 0.41429,0.01657 0.41429,0.543543 0,0.414286 -0.18891,0.874971 -0.3016,1.153371 -0.72583,1.9488 -0.92137,2.711086 -0.92137,3.337486 0,1.501372 1.10366,2.081372 2.33988,2.081372 0.28503,0 1.05726,0 1.72012,-1.156686 0.42754,1.057257 1.56766,1.156686 2.0648,1.156686 1.23954,0 1.96537,-1.040686 2.39291,-2.031658 0.56012,-1.289257 1.08709,-3.499885 1.08709,-4.292 0,-0.911428 -0.44412,-1.153371 -0.72583,-1.153371 -0.41429,0 -0.82194,0.427543 -0.82194,0.792114 0,0.212115 0.0994,0.308229 0.24194,0.444115 0.18229,0.182285 0.59657,0.609828 0.59657,1.401942 0,0.560115 -0.47394,2.1808 -0.9048,3.019315 -0.43086,0.874971 -1.01086,1.454971 -1.81954,1.454971 -0.77554,0 -1.21966,-0.497143 -1.21966,-1.431771 0,-0.467315 0.11269,-0.981029 0.17897,-1.2064 z"
         id="path8735" />
      <path
         inkscape:connector-curvature="0"
         style="font-style:normal;font-variant:normal;font-weight:normal;font-stretch:normal;letter-spacing:normal;word-spacing:normal;text-anchor:start;fill:#000000;stroke:#000000;stroke-width:0.5;stroke-linecap:butt;stroke-linejoin:miter;stroke-miterlimit:4;stroke-opacity:1;stroke-dasharray:none;stroke-dashoffset:0"
         d="m 139.20331,54.613715 -0.003,0.01326 -0.007,0.01657 -0.003,0.01326 -0.003,0.01657 -0.007,0.01657 -0.003,0.01989 -0.007,0.01657 -0.003,0.01657 -0.01,0.03646 -0.01,0.03646 -0.01,0.03977 -0.007,0.03314 -0.007,0.01989 -0.003,0.01657 -0.003,0.01657 -0.003,0.01657 -0.003,0.01657 -0.003,0.01326 -0.003,0.01657 -0.003,0.01326 -0.003,0.0099 0,0.01326 -0.003,0.0099 0,0.0099 -0.003,0.0066 0,0.0066 0,0.0033 0,0.0033 0,0.0033 0,0 c 0,0.2552 0.20548,0.367886 0.39108,0.367886 0.2088,0 0.39109,-0.149143 0.45406,-0.251886 0.0563,-0.106057 0.14914,-0.473942 0.20549,-0.715885 0.0563,-0.218743 0.18228,-0.752343 0.25188,-1.040686 0.0696,-0.2552 0.14252,-0.507086 0.19886,-0.772229 0.12263,-0.477257 0.14914,-0.563428 0.48057,-1.040685 0.32811,-0.460686 0.87166,-1.060572 1.73669,-1.060572 0.66617,0 0.67611,0.589943 0.67611,0.808686 0,0.692686 -0.49051,1.972 -0.67611,2.4592 -0.12926,0.3248 -0.17898,0.427543 -0.17898,0.6264 0,0.609829 0.51372,0.987657 1.10035,0.987657 1.15337,0 1.66045,-1.587543 1.66045,-1.766514 0,-0.149143 -0.14914,-0.149143 -0.17897,-0.149143 -0.16571,0 -0.17897,0.06629 -0.22205,0.195543 -0.26515,0.924686 -0.76229,1.398628 -1.22298,1.398628 -0.24525,0 -0.29165,-0.159085 -0.29165,-0.404342 0,-0.261829 0.0563,-0.414286 0.26514,-0.934629 0.1392,-0.357943 0.61646,-1.580914 0.61646,-2.2272 0,-1.123543 -0.89155,-1.315771 -1.50137,-1.315771 -0.95783,0 -1.60743,0.583314 -1.95212,1.047314 -0.0829,-0.795429 -0.76228,-1.047314 -1.23954,-1.047314 -0.49714,0 -0.76229,0.357942 -0.91143,0.619771 -0.25189,0.427543 -0.41429,1.0904 -0.41429,1.146743 0,0.149143 0.1624,0.149143 0.19886,0.149143 0.15909,0 0.16903,-0.03646 0.25189,-0.348 0.17234,-0.682743 0.3944,-1.246172 0.84514,-1.246172 0.3016,0 0.37783,0.251886 0.37783,0.563429 0,0.222057 -0.10274,0.646286 -0.1856,0.957828 -0.0795,0.314858 -0.19223,0.7888 -0.2552,1.040686 z"
         id="path8737" />
      <path
         inkscape:connector-curvature="0"
         style="font-style:normal;font-variant:normal;font-weight:normal;font-stretch:normal;letter-spacing:normal;word-spacing:normal;text-anchor:start;fill:#000000;stroke:#000000;stroke-width:0.5;stroke-linecap:butt;stroke-linejoin:miter;stroke-miterlimit:4;stroke-opacity:1;stroke-dasharray:none;stroke-dashoffset:0"
         d="m 151.29714,52.727886 h 3.53303 c 0.14914,0 0.42423,0 0.42423,-0.2784 0,-0.285028 -0.26514,-0.285028 -0.42423,-0.285028 h -3.53303 v -3.546286 c 0,-0.152457 0,-0.424229 -0.2784,-0.424229 -0.29166,0 -0.29166,0.261829 -0.29166,0.424229 v 3.546286 h -3.54297 c -0.14914,0 -0.42754,0 -0.42754,0.275085 0,0.288343 0.26183,0.288343 0.42754,0.288343 h 3.54297 v 3.5496 c 0,0.149143 0,0.424229 0.2784,0.424229 0.29166,0 0.29166,-0.265143 0.29166,-0.424229 z"
         id="path8739" />
      <path
         inkscape:connector-curvature="0"
         style="font-style:normal;font-variant:normal;font-weight:normal;font-stretch:normal;letter-spacing:normal;word-spacing:normal;text-anchor:start;fill:#000000;stroke:#000000;stroke-width:0.5;stroke-linecap:butt;stroke-linejoin:miter;stroke-miterlimit:4;stroke-opacity:1;stroke-dasharray:none;stroke-dashoffset:0"
         d="m 159.95737,47.995086 0,-0.01326 0,-0.01326 0,-0.01657 0,-0.01326 0,-0.0099 0,-0.01326 0,-0.01326 -0.003,-0.0099 0,-0.01326 0,-0.0099 0,-0.0099 0,-0.0099 -0.003,-0.0099 0,-0.0099 0,-0.0099 -0.003,-0.0066 0,-0.0099 -0.003,-0.0066 0,-0.0099 -0.003,-0.0066 -0.003,-0.01326 -0.003,-0.01326 -0.007,-0.0099 -0.007,-0.0099 -0.007,-0.0099 -0.01,-0.0099 -0.007,-0.0066 -0.01,-0.0066 -0.0133,-0.0066 -0.01,-0.0033 -0.0133,-0.0033 -0.0166,-0.0066 -0.007,0 -0.01,0 -0.007,-0.0033 -0.01,0 -0.01,-0.0033 -0.01,0 -0.01,0 -0.01,0 -0.01,0 -0.01,-0.0033 -0.0133,0 -0.01,0 -0.0133,0 -0.01,0 -0.0133,0 -0.0132,0 -0.0166,0 -0.0133,0 -0.0133,0 -0.0166,0 c -0.73909,0.729143 -1.7864,0.739086 -2.26366,0.739086 v 0.414286 c 0.28172,0 1.044,0 1.67372,-0.321486 v 5.889486 c 0,0.384457 0,0.5336 -1.15337,0.5336 h -0.43749 v 0.414285 c 0.2088,-0.0099 1.62731,-0.0464 2.05817,-0.0464 0.35463,0 1.81292,0.03646 2.0648,0.0464 v -0.414285 h -0.4408 c -1.15337,0 -1.15337,-0.149143 -1.15337,-0.5336 z"
         id="path8741" />
    </g>
    <g
       transform="translate(189.97932,377.88357)"
       id="g9070">
      <g
         id="g8968"
         style="stroke-width:0.5;stroke-miterlimit:4;stroke-dasharray:none">
        <g
           word-spacing="normal"
           letter-spacing="normal"
           font-size-adjust="none"
           font-stretch="normal"
           font-weight="normal"
           font-variant="normal"
           font-style="normal"
           stroke-miterlimit="10.433"
           xml:space="preserve"
           transform="matrix(0.33142857,0,0,-0.33142857,-58,187.5)"
           id="g8970"
           style="font-style:normal;font-variant:normal;font-weight:normal;font-stretch:normal;letter-spacing:normal;word-spacing:normal;text-anchor:start;fill:none;stroke:#000000;stroke-width:1.50862074;stroke-linecap:butt;stroke-linejoin:miter;stroke-miterlimit:4;stroke-opacity:1;stroke-dasharray:none;stroke-dashoffset:0"><path
             inkscape:connector-curvature="0"
             id="path8972"
             d="m 472.16,421.25 0.03,0.13 0.04,0.15 0.04,0.16 0.04,0.18 0.06,0.19 0.06,0.21 0.06,0.22 0.07,0.22 0.08,0.23 0.09,0.24 0.1,0.25 0.1,0.24 0.11,0.25 0.12,0.25 0.13,0.25 0.14,0.25 0.15,0.24 0.15,0.24 0.17,0.23 0.18,0.22 0.18,0.22 0.2,0.2 0.21,0.19 0.22,0.18 0.23,0.16 0.25,0.14 0.12,0.07 0.13,0.06 0.14,0.05 0.13,0.05 0.14,0.05 0.14,0.04 0.15,0.03 0.15,0.03 0.15,0.02 0.16,0.02 0.16,0.01 0.16,0 c 0.25,0 1.44,0 2.48,-0.64 -1.39,-0.25 -2.39,-1.5 -2.39,-2.69 0,-0.79 0.55,-1.75 1.89,-1.75 1.1,0 2.69,0.89 2.69,2.89 0,2.6 -2.94,3.28 -4.63,3.28 -2.89,0 -4.64,-2.64 -5.23,-3.78 -1.25,3.28 -3.94,3.78 -5.37,3.78 -5.19,0 -8.04,-6.42 -8.04,-7.67 0,-0.5 0.5,-0.5 0.61,-0.5 0.39,0 0.55,0.11 0.64,0.55 1.69,5.28 4.99,6.53 6.68,6.53 0.95,0 2.68,-0.44 2.68,-3.33 0,-1.54 -0.84,-4.89 -2.68,-11.86 -0.8,-3.09 -2.54,-5.18 -4.74,-5.18 -0.3,0 -1.44,0 -2.48,0.65 1.25,0.24 2.34,1.28 2.34,2.69 0,1.34 -1.09,1.73 -1.84,1.73 -1.5,0 -2.75,-1.29 -2.75,-2.89 0,-2.28 2.5,-3.28 4.68,-3.28 3.3,0 5.08,3.49 5.24,3.78 0.59,-1.84 2.39,-3.78 5.37,-3.78 5.14,0 7.99,6.42 7.99,7.67 0,0.5 -0.45,0.5 -0.61,0.5 -0.44,0 -0.55,-0.2 -0.64,-0.54 -1.64,-5.33 -5.03,-6.53 -6.63,-6.53 -1.95,0 -2.75,1.59 -2.75,3.29 0,1.1 0.3,2.19 0.86,4.38 z"
             style="fill:#000000;stroke-width:1.50862074;stroke-miterlimit:4;stroke-dasharray:none" /><path
             inkscape:connector-curvature="0"
             id="path8974"
             d="m 501.95,409.87 -0.01,0.71 -0.02,0.68 -0.03,0.66 -0.04,0.64 -0.06,0.62 -0.07,0.6 -0.09,0.57 -0.11,0.56 -0.13,0.55 -0.15,0.53 -0.17,0.51 -0.19,0.5 -0.21,0.49 -0.24,0.48 -0.26,0.47 -0.14,0.23 -0.15,0.23 c -1.08,1.61 -3.23,3 -6.03,3 v -0.98 c 1.89,0 3.7,-1.14 4.33,-3.17 0.56,-1.88 0.59,-4.39 0.59,-7.43 0,-2.57 0,-5.15 -0.45,-7.34 -0.7,-3.17 -3.06,-3.94 -4.47,-3.94 h 0 c -1.59,0 -3.72,0.94 -4.42,3.8 -0.48,2.05 -0.48,4.91 -0.48,7.48 0,2.55 0,5.21 0.51,7.11 0.74,2.75 2.97,3.49 4.39,3.49 v 0.98 c -8.08,0 -8.08,-9.51 -8.08,-12.03 0,-2.5 0,-11.81 8.08,-11.81 8.1,0 8.1,9.31 8.1,11.81 z"
             style="fill:#000000;stroke-width:1.50862074;stroke-miterlimit:4;stroke-dasharray:none" /></g>      </g>
    </g>
    <path
       inkscape:connector-curvature="0"
       id="path6632"
       d="m 290.35305,449.79323 1.03088,24.25381"
       style="fill:none;stroke:#000000;stroke-width:2.5;stroke-linecap:butt;stroke-linejoin:miter;stroke-miterlimit:4;stroke-opacity:1;stroke-dasharray:none;marker-start:url(#Arrow2Mstart);marker-mid:none;marker-end:none"
       sodipodi:nodetypes="cc" />
    <path
       sodipodi:nodetypes="cc"
       style="fill:none;stroke:#000000;stroke-width:2.5;stroke-linecap:butt;stroke-linejoin:miter;stroke-miterlimit:4;stroke-opacity:1;stroke-dasharray:none;marker-start:url(#Arrow2Mstart);marker-mid:none;marker-end:none"
       d="m 397.71684,449.79323 0.5606,24.25381"
       id="path6634"
       inkscape:connector-curvature="0" />
    <g
       id="g6861"
       style="stroke-width:0.5;stroke-miterlimit:10.43299961;stroke-dasharray:none"
       transform="translate(193.48992,443.94241)">
      <path
         style="font-style:normal;font-variant:normal;font-weight:normal;font-stretch:normal;letter-spacing:normal;word-spacing:normal;text-anchor:start;fill:#000000;stroke:#000000;stroke-width:0.5;stroke-linecap:butt;stroke-linejoin:miter;stroke-miterlimit:10.43299961;stroke-opacity:1;stroke-dasharray:none;stroke-dashoffset:0"
         inkscape:connector-curvature="0"
         d="m 85.057437,43.900422 -0.015,0.05998 -0.012,0.05399 -0.015,0.05399 -0.012,0.05099 -0.015,0.04799 -0.015,0.04799 -0.015,0.04199 -0.015,0.04199 -0.01799,0.03899 -0.015,0.03599 -0.02099,0.03299 -0.01799,0.03299 -0.02399,0.02999 -0.02099,0.02999 -0.02699,0.02399 -0.02699,0.02399 -0.02999,0.02399 -0.02999,0.01799 -0.03299,0.021 -0.03899,0.015 -0.03899,0.015 -0.04199,0.015 -0.04499,0.012 -0.04799,0.012 -0.05099,0.009 -0.05698,0.006 -0.05998,0.006 -0.02999,0.003 -0.03299,0.003 -0.03299,0.003 -0.03299,0 -0.03599,0.003 -0.03599,0 -0.03899,0.003 -0.03599,0 -0.04199,0 -0.03899,0 c -0.257932,0 -0.473875,0 -0.473875,0.407892 0,0.04199 0.018,0.215943 0.257932,0.215943 0.275927,0 0.581846,-0.04199 0.857772,-0.04199 h 0.926755 c 0.44988,0 1.547589,0.04199 1.99747,0.04199 0.131965,0 0.389896,0 0.389896,-0.389897 0,-0.233938 -0.14996,-0.233938 -0.515863,-0.233938 -0.989737,0 -1.05572,-0.14996 -1.05572,-0.323914 0,-0.257932 0.965744,-3.955951 1.097709,-4.44782 0.233938,0.599841 0.815784,1.439618 1.934487,1.439618 v -0.431885 c -1.460613,0 -1.700549,-1.844511 -1.700549,-1.934487 0,-0.05998 0.04199,-0.233938 0.06598,-0.34191 l 1.052721,-4.213882 c 0.14996,-0.60284 0.749801,-1.226674 1.097709,-1.526595 0.233938,-0.215943 0.947749,-0.815783 1.763532,-0.815783 0.94475,0 1.376635,0.947748 1.376635,2.060453 0,1.031726 -0.605839,3.464081 -1.142697,4.579785 -0.533858,1.160692 -1.523596,2.192419 -2.513333,2.192419 v 0.431885 c 2.429355,0 5.053659,-3.158162 5.053659,-6.322323 0,-1.976476 -1.121702,-3.374105 -2.732275,-3.374105 -1.373636,0 -2.537327,1.331647 -2.774264,1.634567 -0.170955,-1.076715 -1.007733,-1.634567 -1.871504,-1.634567 -0.623834,0 -1.115704,0.299921 -1.523595,1.121703 -0.386898,0.770795 -0.686818,2.084447 -0.686818,2.168424 0,0.08398 0.08398,0.191949 0.233938,0.191949 0.173954,0 0.194948,-0.01799 0.323914,-0.515863 0.320915,-1.268663 0.728807,-2.534327 1.592577,-2.534327 0.49187,0 0.665824,0.341909 0.665824,0.989737 0,0.512864 -0.06598,0.728807 -0.14996,1.112705 z"
         id="path6735" />
      <path
         style="font-style:normal;font-variant:normal;font-weight:normal;font-stretch:normal;letter-spacing:normal;word-spacing:normal;text-anchor:start;fill:#000000;stroke:#000000;stroke-width:0.5;stroke-linecap:butt;stroke-linejoin:miter;stroke-miterlimit:10.43299961;stroke-opacity:1;stroke-dasharray:none;stroke-dashoffset:0"
         inkscape:connector-curvature="0"
         d="m 99.003737,34.200995 0,0 0,-0.003 0,0 0,-0.003 0,-0.006 0,-0.003 -0.003,-0.006 0,-0.006 0,-0.006 -0.003,-0.006 0,-0.006 -0.003,-0.006 -0.003,-0.006 0,-0.009 -0.006,-0.006 -0.003,-0.009 -0.003,-0.006 -0.006,-0.009 -0.006,-0.006 -0.006,-0.006 -0.006,-0.009 -0.003,-0.003 -0.003,-0.003 -0.006,-0.003 -0.003,-0.003 -0.003,-0.003 -0.006,-0.003 -0.006,-0.003 -0.003,-0.003 -0.006,-0.003 -0.006,-0.003 -0.006,0 -0.006,-0.003 -0.006,-0.003 -0.006,0 -0.006,-0.003 -0.006,-0.003 -0.006,0 -0.009,0 -0.006,-0.003 -0.009,0 -0.009,0 -0.006,-0.003 -0.009,0 -0.009,0 c -0.347908,0 -1.43362,0.122968 -1.823516,0.14996 -0.122967,0.015 -0.284925,0.02999 -0.284925,0.299921 0,0.179952 0.134965,0.179952 0.359905,0.179952 0.71681,0 0.743803,0.101973 0.743803,0.251933 l -0.04499,0.299921 -2.165426,8.607716 c -0.05998,0.206945 -0.05998,0.239937 -0.05998,0.329913 0,0.341909 0.29992,0.416889 0.434885,0.416889 0.191949,0 0.416889,-0.134964 0.506865,-0.314916 0.07498,-0.134964 0.749801,-2.894232 0.836778,-3.269133 0.506866,0.04199 1.73354,0.278926 1.73354,1.268663 0,0.101973 0,0.164957 -0.04499,0.314917 -0.02999,0.176953 -0.06298,0.353906 -0.06298,0.518862 0,0.884766 0.599841,1.481607 1.379634,1.481607 0.44388,0 0.84877,-0.239936 1.18168,-0.79179 0.36891,-0.656825 0.53386,-1.481607 0.53386,-1.5086 0,-0.14996 -0.13196,-0.14996 -0.17995,-0.14996 -0.14996,0 -0.16196,0.05998 -0.20994,0.269929 -0.29393,1.088711 -0.64183,1.850509 -1.29866,1.850509 -0.28192,0 -0.476871,-0.161957 -0.476871,-0.701814 0,-0.251933 0.05998,-0.593843 0.119968,-0.833779 0.05698,-0.257931 0.05698,-0.314916 0.05698,-0.464877 0,-0.974741 -0.941762,-1.403627 -2.210425,-1.568583 0.461877,-0.272928 0.94175,-0.749802 1.286658,-1.106707 0.71681,-0.79179 1.403637,-1.43362 2.138447,-1.43362 0.09,0 0.10197,0 0.13196,0.015 0.18295,0.02699 0.19495,0.02699 0.31192,0.116969 0.033,0.018 0.033,0.03299 0.063,0.05999 -0.71681,0.04799 -0.85477,0.626833 -0.85477,0.806785 0,0.236938 0.16496,0.524861 0.56685,0.524861 0.3899,0 0.82478,-0.329912 0.82478,-0.908759 0,-0.44988 -0.34491,-0.94175 -1.01673,-0.94175 -0.41689,0 -1.10371,0.116969 -2.183432,1.310652 -0.506865,0.56685 -1.085712,1.166691 -1.652561,1.391631 z"
         id="path6737" />
      <path
         style="font-style:normal;font-variant:normal;font-weight:normal;font-stretch:normal;letter-spacing:normal;word-spacing:normal;text-anchor:start;fill:#000000;stroke:#000000;stroke-width:0.5;stroke-linecap:butt;stroke-linejoin:miter;stroke-miterlimit:10.43299961;stroke-opacity:1;stroke-dasharray:none;stroke-dashoffset:0"
         inkscape:connector-curvature="0"
         d="m 109.83087,39.626556 0,-0.221941 -0.006,-0.22494 -0.006,-0.224941 -0.009,-0.221941 -0.012,-0.22494 -0.018,-0.221941 -0.024,-0.221941 -0.027,-0.218942 -0.036,-0.218942 -0.042,-0.218942 -0.048,-0.215943 -0.057,-0.215942 -0.066,-0.212944 -0.072,-0.212944 -0.084,-0.209944 -0.045,-0.104972 -0.048,-0.101973 c -0.68381,-1.439618 -1.91349,-1.679554 -2.54032,-1.679554 -0.89376,0 -1.98847,0.389896 -2.60031,1.781527 -0.47688,1.031726 -0.55186,2.198417 -0.55186,3.3921 0,1.121703 0.06,2.465346 0.67483,3.599045 0.63883,1.211679 1.73354,1.5116 2.46234,1.5116 v -0.329913 c -0.57884,0 -1.46661,-0.374901 -1.73354,-1.80852 -0.16495,-0.893763 -0.16495,-2.267399 -0.16495,-3.155163 0,-0.953747 0,-1.937486 0.12296,-2.744272 0.28193,-1.781528 1.40063,-1.913493 1.77553,-1.913493 0.49187,0 1.48161,0.26693 1.76353,1.748536 0.14996,0.833779 0.14996,1.973477 0.14996,2.909229 0,1.124701 0,2.138432 -0.16495,3.095179 -0.22494,1.418623 -1.07672,1.868504 -1.74854,1.868504 h 0 v 0.329913 c 0.80679,0 1.94049,-0.314917 2.60031,-1.73654 0.47988,-1.028727 0.55486,-2.192418 0.55486,-3.374105 z"
         id="path6739" />
    </g>
    <g
       id="g6866"
       style="stroke-width:0.5;stroke-miterlimit:10.43299961;stroke-dasharray:none"
       transform="translate(243.48992,443.94241)">
      <path
         style="font-style:normal;font-variant:normal;font-weight:normal;font-stretch:normal;letter-spacing:normal;word-spacing:normal;text-anchor:start;fill:#000000;stroke:#000000;stroke-width:0.5;stroke-linecap:butt;stroke-linejoin:miter;stroke-miterlimit:10.43299961;stroke-opacity:1;stroke-dasharray:none;stroke-dashoffset:0"
         inkscape:connector-curvature="0"
         d="m 140.12226,43.900422 -0.015,0.05998 -0.012,0.05399 -0.015,0.05399 -0.012,0.05099 -0.015,0.04799 -0.015,0.04799 -0.015,0.04199 -0.015,0.04199 -0.015,0.03899 -0.018,0.03599 -0.018,0.03299 -0.021,0.03299 -0.021,0.02999 -0.024,0.02999 -0.024,0.02399 -0.03,0.02399 -0.027,0.02399 -0.033,0.01799 -0.033,0.021 -0.036,0.015 -0.039,0.015 -0.045,0.015 -0.045,0.012 -0.048,0.012 -0.051,0.009 -0.057,0.006 -0.06,0.006 -0.03,0.003 -0.033,0.003 -0.033,0.003 -0.033,0 -0.036,0.003 -0.036,0 -0.036,0.003 -0.039,0 -0.039,0 -0.042,0 c -0.25793,0 -0.47387,0 -0.47387,0.407892 0,0.04199 0.018,0.215943 0.25793,0.215943 0.27593,0 0.58185,-0.04199 0.85777,-0.04199 h 0.92676 c 0.44988,0 1.54759,0.04199 1.99747,0.04199 0.13196,0 0.38989,0 0.38989,-0.389897 0,-0.233938 -0.14996,-0.233938 -0.51586,-0.233938 -0.98974,0 -1.05572,-0.14996 -1.05572,-0.323914 0,-0.257932 0.96574,-3.955951 1.09771,-4.44782 0.23394,0.599841 0.81578,1.439618 1.93449,1.439618 v -0.431885 c -1.46062,0 -1.70055,-1.844511 -1.70055,-1.934487 0,-0.05998 0.042,-0.233938 0.066,-0.34191 l 1.05572,-4.213882 c 0.14996,-0.60284 0.7498,-1.226674 1.09471,-1.526595 0.23394,-0.215943 0.94775,-0.815783 1.76353,-0.815783 0.94475,0 1.37664,0.947748 1.37664,2.060453 0,1.031726 -0.60584,3.464081 -1.1427,4.579785 -0.53386,1.160692 -1.5236,2.192419 -2.51333,2.192419 v 0.431885 c 2.42935,0 5.05366,-3.158162 5.05366,-6.322323 0,-1.976476 -1.12171,-3.374105 -2.73228,-3.374105 -1.37364,0 -2.53433,1.331647 -2.77426,1.634567 -0.17096,-1.076715 -1.00774,-1.634567 -1.87151,-1.634567 -0.62383,0 -1.1127,0.299921 -1.52359,1.121703 -0.3869,0.770795 -0.68682,2.084447 -0.68682,2.168424 0,0.08398 0.084,0.191949 0.23394,0.191949 0.17395,0 0.19794,-0.01799 0.32391,-0.515863 0.32392,-1.268663 0.72881,-2.534327 1.59258,-2.534327 0.49187,0 0.66582,0.341909 0.66582,0.989737 0,0.512864 -0.066,0.728807 -0.14996,1.112705 z"
         id="path6741" />
      <path
         style="font-style:normal;font-variant:normal;font-weight:normal;font-stretch:normal;letter-spacing:normal;word-spacing:normal;text-anchor:start;fill:#000000;stroke:#000000;stroke-width:0.5;stroke-linecap:butt;stroke-linejoin:miter;stroke-miterlimit:10.43299961;stroke-opacity:1;stroke-dasharray:none;stroke-dashoffset:0"
         inkscape:connector-curvature="0"
         d="m 154.06856,34.200995 0,0 0,-0.003 0,0 0,-0.003 -0.003,-0.006 0,-0.003 0,-0.006 0,-0.006 0,-0.006 -0.003,-0.006 0,-0.006 -0.003,-0.006 -0.003,-0.006 -0.003,-0.009 -0.003,-0.006 -0.003,-0.009 -0.003,-0.006 -0.006,-0.009 -0.006,-0.006 -0.006,-0.006 -0.006,-0.009 -0.003,-0.003 -0.006,-0.003 -0.003,-0.003 -0.003,-0.003 -0.006,-0.003 -0.003,-0.003 -0.006,-0.003 -0.003,-0.003 -0.006,-0.003 -0.006,-0.003 -0.006,0 -0.006,-0.003 -0.006,-0.003 -0.006,0 -0.006,-0.003 -0.006,-0.003 -0.009,0 -0.006,0 -0.009,-0.003 -0.006,0 -0.009,0 -0.009,-0.003 -0.009,0 -0.006,0 c -0.34791,0 -1.43662,0.122968 -1.82352,0.14996 -0.12296,0.015 -0.28792,0.02999 -0.28792,0.299921 0,0.179952 0.13796,0.179952 0.3629,0.179952 0.71681,0 0.74381,0.101973 0.74381,0.251933 l -0.045,0.299921 -2.16543,8.607716 c -0.063,0.206945 -0.063,0.239937 -0.063,0.329913 0,0.341909 0.29992,0.416889 0.43788,0.416889 0.19195,0 0.41689,-0.134964 0.50387,-0.314916 0.075,-0.134964 0.7498,-2.894232 0.83978,-3.269133 0.50686,0.04199 1.73354,0.278926 1.73354,1.268663 0,0.101973 0,0.164957 -0.045,0.314917 -0.03,0.176953 -0.063,0.353906 -0.063,0.518862 0,0.884766 0.59985,1.481607 1.37964,1.481607 0.44388,0 0.84577,-0.239936 1.17869,-0.79179 0.3719,-0.656825 0.53685,-1.481607 0.53685,-1.5086 0,-0.14996 -0.13196,-0.14996 -0.17995,-0.14996 -0.14996,0 -0.16496,0.05998 -0.20994,0.269929 -0.29692,1.088711 -0.64183,1.850509 -1.29866,1.850509 -0.28192,0 -0.47687,-0.161957 -0.47687,-0.701814 0,-0.251933 0.06,-0.593843 0.11997,-0.833779 0.057,-0.257931 0.057,-0.314916 0.057,-0.464877 0,-0.974741 -0.94175,-1.403627 -2.21041,-1.568583 0.46187,-0.272928 0.94175,-0.749802 1.28666,-1.106707 0.71681,-0.79179 1.40062,-1.43362 2.13843,-1.43362 0.087,0 0.10197,0 0.12896,0.015 0.18296,0.02699 0.19795,0.02699 0.31492,0.116969 0.033,0.018 0.033,0.03299 0.06,0.05999 -0.71681,0.04799 -0.85178,0.626833 -0.85178,0.806785 0,0.236938 0.16496,0.524861 0.56685,0.524861 0.3899,0 0.82478,-0.329912 0.82478,-0.908759 0,-0.44988 -0.34491,-0.94175 -1.01673,-0.94175 -0.41689,0 -1.1067,0.116969 -2.18342,1.310652 -0.50686,0.56685 -1.08871,1.166691 -1.65556,1.391631 z"
         id="path6743" />
      <path
         style="font-style:normal;font-variant:normal;font-weight:normal;font-stretch:normal;letter-spacing:normal;word-spacing:normal;text-anchor:start;fill:#000000;stroke:#000000;stroke-width:0.5;stroke-linecap:butt;stroke-linejoin:miter;stroke-miterlimit:10.43299961;stroke-opacity:1;stroke-dasharray:none;stroke-dashoffset:0"
         inkscape:connector-curvature="0"
         d="m 159.33816,43.525522 -0.006,0.02399 -0.003,0.02099 -0.006,0.02099 -0.003,0.02399 -0.012,0.04799 -0.012,0.04799 -0.009,0.04799 -0.012,0.05099 -0.012,0.04799 -0.012,0.04499 -0.003,0.02399 -0.006,0.02099 -0.006,0.02399 -0.003,0.02099 -0.006,0.01799 -0.003,0.02099 -0.003,0.018 -0.003,0.018 -0.003,0.01799 -0.003,0.015 -0.003,0.015 -0.003,0.012 -0.003,0.012 0,0.012 0,0.009 0,0.006 c 0,0.269928 0.20994,0.404892 0.43188,0.404892 0.17995,0 0.44988,-0.116969 0.55185,-0.416889 0.018,-0.03299 0.19795,-0.731806 0.28493,-1.106707 l 0.32691,-1.343643 c 0.09,-0.329913 0.17995,-0.656826 0.25493,-1.004734 0.06,-0.251933 0.18296,-0.683818 0.19495,-0.743802 0.22494,-0.464877 1.01973,-1.823517 2.43536,-1.823517 0.67482,0 0.80978,0.551854 0.80978,1.043724 0,0.929753 -0.7348,2.840246 -0.97474,3.482076 -0.13196,0.341909 -0.14696,0.524861 -0.14696,0.689817 0,0.698814 0.52186,1.223675 1.22368,1.223675 1.40662,0 1.95848,-2.180421 1.95848,-2.30039 0,-0.14996 -0.13497,-0.14996 -0.18296,-0.14996 -0.14396,0 -0.14396,0.04499 -0.21894,0.269929 -0.29992,1.013731 -0.79179,1.850509 -1.52959,1.850509 -0.25194,0 -0.35391,-0.14996 -0.35391,-0.49187 0,-0.3749 0.13497,-0.734805 0.26693,-1.061718 0.28493,-0.79179 0.91176,-2.432355 0.91176,-3.287128 0,-1.001734 -0.63883,-1.595577 -1.71854,-1.595577 -1.34365,0 -2.07545,0.953747 -2.33039,1.295656 -0.075,-0.836778 -0.68681,-1.295656 -1.37663,-1.295656 -0.68382,0 -0.96874,0.578847 -1.1187,0.845776 -0.23994,0.512864 -0.44989,1.391631 -0.44989,1.454614 0,0.14996 0.14996,0.14996 0.18296,0.14996 0.14996,0 0.16195,-0.01799 0.25193,-0.347908 0.25193,-1.058719 0.55185,-1.775529 1.09171,-1.775529 0.29392,0 0.46488,0.19195 0.46488,0.683819 0,0.314916 -0.048,0.482872 -0.23994,1.256667 z"
         id="path6745" />
    </g>
  </g>
</svg>
